<svg id="btpmat-boutique" xmlns="http://www.w3.org/2000/svg" width="575.467" height="95.422" viewBox="0 0 575.467 95.422">
  <g id="Groupe_6502" data-name="Groupe 6502" transform="translate(0 2.528)">
    <g id="Groupe_6500" data-name="Groupe 6500">
      <path id="Tracé_2813" data-name="Tracé 2813" d="M239.879,643.615a14.529,14.529,0,0,1,5.847,5.129,13.171,13.171,0,0,1,2.163,7.374q0,10.763-9.746,13.561v.338q11.1,2.545,11.1,14.579A14.72,14.72,0,0,1,247,692.69a15.18,15.18,0,0,1-6.145,5.466,18.863,18.863,0,0,1-8.56,1.95H192.966V641.792h38.819A18.028,18.028,0,0,1,239.879,643.615ZM211.7,664.507H224.58a4.051,4.051,0,0,0,3.094-1.312,4.6,4.6,0,0,0,1.229-3.264v-.847a4.405,4.405,0,0,0-1.273-3.179,4.1,4.1,0,0,0-3.051-1.314H211.7Zm0,22.038h14.238a4.05,4.05,0,0,0,3.094-1.314,4.6,4.6,0,0,0,1.229-3.264v-.847a4.6,4.6,0,0,0-1.229-3.264,4.061,4.061,0,0,0-3.094-1.312H211.7Z" transform="translate(-192.966 -641.792)" fill="#fff"/>
      <path id="Tracé_2814" data-name="Tracé 2814" d="M264.874,656.71v43.4H246.143v-43.4H226.988V641.792h56.956V656.71Z" transform="translate(-168.081 -641.792)" fill="#fff"/>
      <path id="Tracé_2815" data-name="Tracé 2815" d="M305.639,644.294a17.552,17.552,0,0,1,6.611,6.865,20.176,20.176,0,0,1,2.374,9.79v1.1a20.411,20.411,0,0,1-2.374,9.831,17.46,17.46,0,0,1-6.611,6.909,18.667,18.667,0,0,1-9.663,2.5H281.992v18.816H263.26V641.792h32.716A18.668,18.668,0,0,1,305.639,644.294Zm-23.646,23.35H289.7a5.938,5.938,0,0,0,4.45-1.527,5.7,5.7,0,0,0,1.482-4.152v-.679a5.677,5.677,0,0,0-1.482-4.2,6.052,6.052,0,0,0-4.45-1.482h-7.712Z" transform="translate(-141.55 -641.792)" fill="#fff"/>
      <path id="Tracé_2816" data-name="Tracé 2816" d="M347.628,700.106v-21.02q0-3.9.3-8.01t.635-6.907q.338-2.8.424-3.56h-.339l-10.764,39.5H323.218L312.37,660.693h-.339q.083.764.466,3.52t.72,6.864q.338,4.111.339,8.01v21.02H296.351V641.792H322.8l8.813,33.649h.341l8.73-33.649H366.19v58.314Z" transform="translate(-117.346 -641.792)" fill="#fff"/>
      <path id="Tracé_2817" data-name="Tracé 2817" d="M383.044,700.106l-2.459-8.221H360.16l-2.459,8.221H338.546l21.274-58.314H381.6l21.274,58.314Zm-18.985-21.274h12.627l-6.1-20.766h-.339Z" transform="translate(-86.484 -641.792)" fill="#fff"/>
      <path id="Tracé_2818" data-name="Tracé 2818" d="M410.21,656.71v43.4H391.479v-43.4H372.324V641.792H429.28V656.71Z" transform="translate(-61.777 -641.792)" fill="#fff"/>
    </g>
    <g id="Groupe_6501" data-name="Groupe 6501" transform="translate(0 77.543)">
      <path id="Tracé_2819" data-name="Tracé 2819" d="M192.966,699.135V686.66h5.106a4.544,4.544,0,0,1,1.828.35,3.337,3.337,0,0,1,1.292.937,4.179,4.179,0,0,1,.732,1.3,4.575,4.575,0,0,1,.246,1.5,4.687,4.687,0,0,1-.246,1.515,4.123,4.123,0,0,1-.734,1.3,3.412,3.412,0,0,1-1.293.926,4.62,4.62,0,0,1-1.832.345H195.61v4.3Zm2.644-6.632h2.339a1.391,1.391,0,0,0,1.153-.54,1.907,1.907,0,0,0,.424-1.21,1.993,1.993,0,0,0-.4-1.207,1.291,1.291,0,0,0-1.1-.554h-2.41Z" transform="translate(-192.966 -686.516)" fill="#404040"/>
      <path id="Tracé_2820" data-name="Tracé 2820" d="M199.6,699.135l4.633-12.475h2.881l4.616,12.475h-2.795l-1.1-2.952h-4.315l-1.1,2.952Zm4.793-5.253h2.59l-1.318-4.339Z" transform="translate(-188.115 -686.516)" fill="#404040"/>
      <path id="Tracé_2821" data-name="Tracé 2821" d="M208.839,699.135V686.66H213.9a4.505,4.505,0,0,1,1.815.35,3.383,3.383,0,0,1,1.3.937,4.219,4.219,0,0,1,.746,1.3,4.491,4.491,0,0,1,.253,1.5,4.31,4.31,0,0,1-.777,2.533,3.55,3.55,0,0,1-2.265,1.428l3.025,4.42h-3.113l-2.791-4.306h-.6v4.306Zm2.644-6.632h2.251a1.387,1.387,0,0,0,1.151-.54,1.9,1.9,0,0,0,.426-1.21,2,2,0,0,0-.4-1.207,1.3,1.3,0,0,0-1.1-.554h-2.322Z" transform="translate(-181.356 -686.516)" fill="#404040"/>
      <path id="Tracé_2822" data-name="Tracé 2822" d="M216.4,689.046V686.66h9.4v2.386h-3.352v10.089h-2.7V689.046Z" transform="translate(-175.829 -686.516)" fill="#404040"/>
      <path id="Tracé_2823" data-name="Tracé 2823" d="M224.4,699.135V686.66h7.9v2.332h-5.251v2.848h4.6v2.3h-4.6V696.8h5.411v2.334Z" transform="translate(-169.97 -686.516)" fill="#404040"/>
      <path id="Tracé_2824" data-name="Tracé 2824" d="M231.869,699.135V686.66h2.422l4.278,7.461V686.66h2.644v12.475h-2.362l-4.339-7.551v7.551Z" transform="translate(-164.511 -686.516)" fill="#404040"/>
      <path id="Tracé_2825" data-name="Tracé 2825" d="M239.5,699.135l4.633-12.475h2.881l4.616,12.475h-2.795l-1.1-2.952h-4.315l-1.1,2.952Zm4.793-5.253h2.59l-1.318-4.339Z" transform="translate(-158.929 -686.516)" fill="#404040"/>
      <path id="Tracé_2826" data-name="Tracé 2826" d="M248.742,699.135V686.66h2.644v12.475Z" transform="translate(-152.169 -686.516)" fill="#404040"/>
      <path id="Tracé_2827" data-name="Tracé 2827" d="M253.4,699.135V686.66h5.058a4.506,4.506,0,0,1,1.815.35,3.382,3.382,0,0,1,1.3.937,4.219,4.219,0,0,1,.746,1.3,4.491,4.491,0,0,1,.253,1.5,4.31,4.31,0,0,1-.777,2.533,3.55,3.55,0,0,1-2.265,1.428l3.025,4.42H259.44l-2.791-4.306h-.6v4.306Zm2.644-6.632H258.3a1.387,1.387,0,0,0,1.151-.54,1.9,1.9,0,0,0,.426-1.21,2,2,0,0,0-.4-1.207,1.3,1.3,0,0,0-1.1-.554h-2.322Z" transform="translate(-148.761 -686.516)" fill="#404040"/>
      <path id="Tracé_2828" data-name="Tracé 2828" d="M261.5,699.135V686.66h7.9v2.332h-5.251v2.848h4.6v2.3h-4.6V696.8h5.411v2.334Z" transform="translate(-142.835 -686.516)" fill="#404040"/>
      <path id="Tracé_2829" data-name="Tracé 2829" d="M272.959,699.135V686.66h4.89a5.493,5.493,0,0,1,3.042.831,5.182,5.182,0,0,1,1.941,2.24,7.559,7.559,0,0,1,.649,3.2,7.418,7.418,0,0,1-.649,3.169,5.155,5.155,0,0,1-1.941,2.215,5.546,5.546,0,0,1-3.042.822Zm2.644-2.388h2.246a2.636,2.636,0,0,0,1.65-.533,3.082,3.082,0,0,0,1.016-1.382,5.324,5.324,0,0,0,.322-1.9,5.464,5.464,0,0,0-.322-1.929,3.158,3.158,0,0,0-1.016-1.408,2.6,2.6,0,0,0-1.65-.547H275.6Z" transform="translate(-134.456 -686.516)" fill="#404040"/>
      <path id="Tracé_2830" data-name="Tracé 2830" d="M281.792,699.135V686.66h7.9v2.332h-5.253v2.848h4.6v2.3h-4.6V696.8h5.411v2.334Z" transform="translate(-127.995 -686.516)" fill="#404040"/>
      <path id="Tracé_2831" data-name="Tracé 2831" d="M288.786,695.534h2.661a1.422,1.422,0,0,0,.518,1.053,1.986,1.986,0,0,0,1.347.426,2.249,2.249,0,0,0,1.318-.355,1.14,1.14,0,0,0,.514-.954,1.092,1.092,0,0,0-.3-.807,2.7,2.7,0,0,0-1.2-.6l-1.491-.442q-3.241-.995-3.241-3.575a3.319,3.319,0,0,1,1.238-2.67,4.616,4.616,0,0,1,3.059-1.035,4.417,4.417,0,0,1,3.021,1.035,3.517,3.517,0,0,1,1.181,2.786H294.78a1.353,1.353,0,0,0-.421-1.039,1.674,1.674,0,0,0-1.19-.395,1.872,1.872,0,0,0-1.158.348,1.068,1.068,0,0,0-.459.888q0,.888,1.356,1.264l1.489.443q3.5,1.036,3.388,3.811a3.41,3.41,0,0,1-.4,1.626,3.266,3.266,0,0,1-1.03,1.157,5.081,5.081,0,0,1-1.418.667,5.688,5.688,0,0,1-1.626.232,4.831,4.831,0,0,1-3.276-1.084A3.509,3.509,0,0,1,288.786,695.534Z" transform="translate(-122.88 -686.577)" fill="#404040"/>
      <path id="Tracé_2832" data-name="Tracé 2832" d="M300.69,699.135V686.66H305.8a4.544,4.544,0,0,1,1.828.35,3.337,3.337,0,0,1,1.292.937,4.146,4.146,0,0,1,.732,1.3,4.575,4.575,0,0,1,.246,1.5,4.686,4.686,0,0,1-.246,1.515,4.088,4.088,0,0,1-.734,1.3,3.412,3.412,0,0,1-1.293.926,4.62,4.62,0,0,1-1.832.345h-2.455v4.3Zm2.644-6.632h2.339a1.391,1.391,0,0,0,1.153-.54,1.907,1.907,0,0,0,.424-1.21,2,2,0,0,0-.4-1.207,1.3,1.3,0,0,0-1.1-.554h-2.41Z" transform="translate(-114.173 -686.516)" fill="#404040"/>
      <path id="Tracé_2833" data-name="Tracé 2833" d="M308.552,699.135V686.66h5.057a4.505,4.505,0,0,1,1.815.35,3.388,3.388,0,0,1,1.3.937,4.247,4.247,0,0,1,.745,1.3,4.447,4.447,0,0,1,.255,1.5,4.3,4.3,0,0,1-.779,2.533,3.55,3.55,0,0,1-2.263,1.428l3.023,4.42h-3.111l-2.793-4.306h-.6v4.306ZM311.2,692.5h2.251a1.385,1.385,0,0,0,1.151-.54,1.9,1.9,0,0,0,.426-1.21,2,2,0,0,0-.4-1.207,1.293,1.293,0,0,0-1.1-.554H311.2Z" transform="translate(-108.422 -686.516)" fill="#404040"/>
      <path id="Tracé_2834" data-name="Tracé 2834" d="M316.236,692.985a6.4,6.4,0,0,1,.84-3.222,6.256,6.256,0,0,1,2.294-2.327,6.371,6.371,0,0,1,6.389,0,6.252,6.252,0,0,1,2.3,2.327,6.55,6.55,0,0,1,0,6.424,6.288,6.288,0,0,1-5.5,3.186,6.164,6.164,0,0,1-2.471-.509,6.344,6.344,0,0,1-2.015-1.366,6.432,6.432,0,0,1-1.34-2.041A6.34,6.34,0,0,1,316.236,692.985Zm2.644,0a3.874,3.874,0,0,0,1.07,2.755,3.57,3.57,0,0,0,5.229,0,4.077,4.077,0,0,0,0-5.522,3.555,3.555,0,0,0-5.225,0A3.906,3.906,0,0,0,318.88,692.985Z" transform="translate(-102.802 -686.577)" fill="#404040"/>
      <path id="Tracé_2835" data-name="Tracé 2835" d="M326.263,699.135V686.66h7.807v2.332h-5.163v2.848H333v2.3h-4.093v5Z" transform="translate(-95.468 -686.516)" fill="#404040"/>
      <path id="Tracé_2836" data-name="Tracé 2836" d="M333.329,699.135V686.66h7.9v2.332h-5.253v2.848h4.6v2.3h-4.6V696.8h5.411v2.334Z" transform="translate(-90.299 -686.516)" fill="#404040"/>
      <path id="Tracé_2837" data-name="Tracé 2837" d="M340.323,695.534h2.661a1.422,1.422,0,0,0,.518,1.053,1.986,1.986,0,0,0,1.347.426,2.249,2.249,0,0,0,1.318-.355,1.136,1.136,0,0,0,.514-.954,1.092,1.092,0,0,0-.3-.807,2.7,2.7,0,0,0-1.2-.6l-1.489-.442q-3.241-.995-3.241-3.575a3.317,3.317,0,0,1,1.236-2.67,4.615,4.615,0,0,1,3.059-1.035,4.425,4.425,0,0,1,3.023,1.035,3.521,3.521,0,0,1,1.179,2.786h-2.628a1.353,1.353,0,0,0-.421-1.039,1.674,1.674,0,0,0-1.189-.395,1.863,1.863,0,0,0-1.157.348,1.065,1.065,0,0,0-.461.888q0,.888,1.356,1.264l1.489.443q3.5,1.036,3.388,3.811a3.409,3.409,0,0,1-.4,1.626,3.266,3.266,0,0,1-1.03,1.157,5.083,5.083,0,0,1-1.418.667,5.689,5.689,0,0,1-1.626.232,4.831,4.831,0,0,1-3.276-1.084A3.509,3.509,0,0,1,340.323,695.534Z" transform="translate(-85.184 -686.577)" fill="#404040"/>
      <path id="Tracé_2838" data-name="Tracé 2838" d="M347.848,695.534h2.661a1.421,1.421,0,0,0,.518,1.053,1.986,1.986,0,0,0,1.347.426,2.249,2.249,0,0,0,1.318-.355,1.14,1.14,0,0,0,.514-.954,1.092,1.092,0,0,0-.3-.807,2.7,2.7,0,0,0-1.2-.6l-1.489-.442q-3.244-.995-3.243-3.575a3.319,3.319,0,0,1,1.238-2.67,4.615,4.615,0,0,1,3.059-1.035,4.417,4.417,0,0,1,3.021,1.035,3.517,3.517,0,0,1,1.181,2.786h-2.628a1.353,1.353,0,0,0-.421-1.039,1.674,1.674,0,0,0-1.189-.395,1.872,1.872,0,0,0-1.158.348,1.068,1.068,0,0,0-.459.888q0,.888,1.356,1.264l1.489.443q3.5,1.036,3.388,3.811a3.409,3.409,0,0,1-.4,1.626,3.267,3.267,0,0,1-1.03,1.157,5.084,5.084,0,0,1-1.418.667,5.688,5.688,0,0,1-1.626.232,4.831,4.831,0,0,1-3.276-1.084A3.509,3.509,0,0,1,347.848,695.534Z" transform="translate(-79.68 -686.577)" fill="#404040"/>
      <path id="Tracé_2839" data-name="Tracé 2839" d="M355.761,699.135V686.66H358.4v12.475Z" transform="translate(-73.892 -686.516)" fill="#404040"/>
      <path id="Tracé_2840" data-name="Tracé 2840" d="M360,692.985a6.4,6.4,0,0,1,.841-3.222,6.256,6.256,0,0,1,2.294-2.327,6.368,6.368,0,0,1,6.387,0,6.244,6.244,0,0,1,2.3,2.327,6.562,6.562,0,0,1,0,6.424,6.244,6.244,0,0,1-2.3,2.327,6.33,6.33,0,0,1-5.671.35,6.331,6.331,0,0,1-2.017-1.366,6.4,6.4,0,0,1-1.338-2.041A6.311,6.311,0,0,1,360,692.985Zm2.644,0a3.874,3.874,0,0,0,1.07,2.755,3.572,3.572,0,0,0,5.231,0,4.077,4.077,0,0,0,0-5.522,3.556,3.556,0,0,0-5.227,0A3.906,3.906,0,0,0,362.646,692.985Z" transform="translate(-70.79 -686.577)" fill="#404040"/>
      <path id="Tracé_2841" data-name="Tracé 2841" d="M370.03,699.135V686.66h2.422l4.278,7.461V686.66h2.644v12.475h-2.362l-4.339-7.551v7.551Z" transform="translate(-63.455 -686.516)" fill="#404040"/>
      <path id="Tracé_2842" data-name="Tracé 2842" d="M378.571,699.135V686.66H381l4.278,7.461V686.66h2.644v12.475h-2.363l-4.339-7.551v7.551Z" transform="translate(-57.208 -686.516)" fill="#404040"/>
      <path id="Tracé_2843" data-name="Tracé 2843" d="M387.112,699.135V686.66h7.9v2.332h-5.251v2.848h4.6v2.3h-4.6V696.8h5.411v2.334Z" transform="translate(-50.961 -686.516)" fill="#404040"/>
      <path id="Tracé_2844" data-name="Tracé 2844" d="M394.576,699.135V686.66h2.644V696.8h4.687v2.334Z" transform="translate(-45.501 -686.516)" fill="#404040"/>
      <path id="Tracé_2845" data-name="Tracé 2845" d="M400.973,695.534h2.661a1.422,1.422,0,0,0,.518,1.053,1.986,1.986,0,0,0,1.347.426,2.249,2.249,0,0,0,1.318-.355,1.14,1.14,0,0,0,.514-.954,1.092,1.092,0,0,0-.3-.807,2.7,2.7,0,0,0-1.2-.6l-1.489-.442q-3.244-.995-3.243-3.575a3.319,3.319,0,0,1,1.238-2.67,4.615,4.615,0,0,1,3.059-1.035,4.417,4.417,0,0,1,3.021,1.035A3.517,3.517,0,0,1,409.6,690.4h-2.628a1.353,1.353,0,0,0-.421-1.039,1.674,1.674,0,0,0-1.189-.395,1.872,1.872,0,0,0-1.158.348,1.068,1.068,0,0,0-.459.888q0,.888,1.356,1.264l1.489.443q3.5,1.036,3.388,3.811a3.41,3.41,0,0,1-.4,1.626,3.267,3.267,0,0,1-1.03,1.157,5.083,5.083,0,0,1-1.418.667,5.689,5.689,0,0,1-1.626.232,4.831,4.831,0,0,1-3.276-1.084A3.509,3.509,0,0,1,400.973,695.534Z" transform="translate(-40.822 -686.577)" fill="#404040"/>
    </g>
  </g>
  <g id="Groupe_6508" data-name="Groupe 6508" transform="translate(407.444)">
    <g id="Groupe_6505" data-name="Groupe 6505" transform="translate(0 0.92)">
      <g id="Groupe_6504" data-name="Groupe 6504" transform="translate(30.635 3.714)">
        <path id="Tracé_2846" data-name="Tracé 2846" d="M467.775,693.759A12.454,12.454,0,0,0,455.7,682.9a9.532,9.532,0,0,0-9.656,10.861,12.454,12.454,0,0,0,12.07,10.86A9.53,9.53,0,0,0,467.775,693.759ZM457.362,697.8a4.637,4.637,0,0,1-4.495-4.045,3.549,3.549,0,0,1,3.594-4.045,4.64,4.64,0,0,1,4.5,4.045A3.551,3.551,0,0,1,457.362,697.8Z" transform="translate(-445.981 -613.83)" fill="#404040"/>
        <g id="Groupe_6503" data-name="Groupe 6503" transform="translate(75.633)">
          <path id="Tracé_2847" data-name="Tracé 2847" d="M495.72,666.7a17.231,17.231,0,0,0,3.589,10.55,15.945,15.945,0,0,1,13.036-25.134,17.07,17.07,0,0,1,10.638,3.951c-3.735,2.441-10.654,6.99-11.343,7.627a2.277,2.277,0,1,0,3.091,3.342c.947-.876,10.614-12.508,10.614-12.508l-.622.4a4.127,4.127,0,0,1,.622-.4A17.312,17.312,0,0,0,495.72,666.7Z" transform="translate(-485.233 -638.343)" fill="#fff"/>
          <path id="Tracé_2848" data-name="Tracé 2848" d="M542.513,652.086a1.983,1.983,0,0,0,2.833-2.776l-4.91-5.016a1.983,1.983,0,0,0-2.834,2.774l.286.291-2.369,2.318a27.77,27.77,0,1,0,4.06,4.289l2.44-2.388ZM517.465,692.7a21.884,21.884,0,1,1,21.884-21.884A21.884,21.884,0,0,1,517.465,692.7Z" transform="translate(-489.663 -643.008)" fill="#fff"/>
        </g>
        <path id="Tracé_2849" data-name="Tracé 2849" d="M513.149,693.759a12.454,12.454,0,0,0-12.07-10.861,9.532,9.532,0,0,0-9.656,10.861,12.454,12.454,0,0,0,12.072,10.86A9.529,9.529,0,0,0,513.149,693.759ZM502.736,697.8a4.638,4.638,0,0,1-4.495-4.045,3.549,3.549,0,0,1,3.6-4.045,4.64,4.64,0,0,1,4.495,4.045A3.551,3.551,0,0,1,502.736,697.8Z" transform="translate(-412.793 -613.83)" fill="#404040"/>
      </g>
      <path id="Tracé_2850" data-name="Tracé 2850" d="M568.08,704.794H510.622c-2.936,0-5.548-1.584-5.8-3.52h0c-.253-1.936,1.944-3.52,4.881-3.52H543.31a31.706,31.706,0,0,1-7.939-8.642H508.288c-2.711,0-5.12-1.584-5.354-3.52s1.8-3.52,4.507-3.52H532.09a31.508,31.508,0,0,1-1.451-8.642H506.4c-2.713,0-5.122-1.584-5.354-3.52s1.794-3.52,4.505-3.52h25.618a31.381,31.381,0,0,1,3.063-8.642h-29.72c-2.711,0-5.122-1.584-5.354-3.52s1.8-3.522,4.507-3.522H539.3a31.5,31.5,0,0,1,20.249-9.726c.033-.014.066-.033.1-.045.67-.26-3.693.273-3.115.1l-.017-.1H489.246a3.92,3.92,0,0,0-3.972,4.469l7.047,63.418h-3.1l-6.552-58.97H476.3l-2.289,2.779-12.794-.152c-9.689-.123-18.246,4.642-22.763,12.662l-6.434,11.428a30.9,30.9,0,0,0-2.952,17.661l1.9,15.855a4.867,4.867,0,0,0-2.344,6.233l1.373,3.8a4.292,4.292,0,0,0,3.944,2.834h17.716a3.271,3.271,0,0,0,3.137-2.111l1.586-4.145a12.16,12.16,0,0,1,11.621-7.757,15.984,15.984,0,0,1,14.1,9.13l1.158,2.428a4.287,4.287,0,0,0,3.785,2.455h47.881a13.363,13.363,0,0,1-.076-1.38,10.846,10.846,0,0,1,11.111-11.026h2.069a14.229,14.229,0,0,1,13.791,12.406h3.807a3.92,3.92,0,0,0,3.972-4.469Zm-92.351-27.039L444.282,684.7a3.14,3.14,0,0,1-3.51-4.221l6.041-12.5a10.774,10.774,0,0,1,9.331-6.02l16.743-.848a4.333,4.333,0,0,1,4.4,3.78l1.013,9.165A3.307,3.307,0,0,1,475.728,677.755Z" transform="translate(-428.287 -640.863)" fill="#404040"/>
    </g>
    <g id="Groupe_6507" data-name="Groupe 6507" transform="translate(151.469)">
      <g id="Groupe_6506" data-name="Groupe 6506">
        <path id="Tracé_2851" data-name="Tracé 2851" d="M529.777,646.758a.559.559,0,0,0,0-.791l-.845-.835a.561.561,0,0,0-.712-.064l-1.759,1.21,1.184-1.783a.562.562,0,0,0-.074-.708l-1.832-1.811a.559.559,0,0,0-.639-.106l-.313.154.149-.336a.56.56,0,0,0-.119-.625l-.575-.57a.56.56,0,0,0-.791.005l-4.419,4.467,6.332,6.261Z" transform="translate(-513.385 -640.332)" fill="#fff"/>
        <path id="Tracé_2852" data-name="Tracé 2852" d="M520.589,643.488l-1.278,1.293a.558.558,0,0,0,0,.791l1.228,1.214a1.093,1.093,0,0,1-.177,1.693,32.005,32.005,0,0,0-4.013,2.751,2.021,2.021,0,1,0,2.874,2.841,32.016,32.016,0,0,0,2.706-4.043,1.093,1.093,0,0,1,1.69-.2l1.228,1.214a.56.56,0,0,0,.791-.005l1.28-1.293Zm-2.2,9.686a.791.791,0,1,1-.005-1.119A.791.791,0,0,1,518.385,653.174Z" transform="translate(-515.769 -638.024)" fill="#fff"/>
      </g>
    </g>
  </g>
</svg>
