<svg xmlns="http://www.w3.org/2000/svg" width="28.421" height="18.62" viewBox="0 0 28.421 18.62">
  <g id="china" transform="translate(0 -88.276)">
    <path id="Tracé_3059" data-name="Tracé 3059" d="M27.931,106.9H.49a.49.49,0,0,1-.49-.49V88.766a.49.49,0,0,1,.49-.49H27.931a.49.49,0,0,1,.49.49v17.64A.49.49,0,0,1,27.931,106.9Z" transform="translate(0 0)" fill="#ff4b55"/>
    <g id="Groupe_6823" data-name="Groupe 6823" transform="translate(2.2 89.676)">
      <path id="Tracé_3060" data-name="Tracé 3060" d="M42.147,138.418l.467,1.4,1.477.011a.2.2,0,0,1,.117.359l-1.188.877.445,1.408a.2.2,0,0,1-.305.222l-1.2-.859-1.2.859a.2.2,0,0,1-.305-.222l.445-1.408-1.188-.877a.2.2,0,0,1,.117-.359l1.477-.011.467-1.4A.2.2,0,0,1,42.147,138.418Z" transform="translate(-39.628 -136.906)" fill="#ffe15a"/>
      <path id="Tracé_3061" data-name="Tracé 3061" d="M169.1,146.418l.335.457.541-.169a.076.076,0,0,1,.085.117l-.331.46.328.462a.076.076,0,0,1-.085.117l-.539-.173-.338.455a.076.076,0,0,1-.138-.045l0-.566-.537-.181a.076.076,0,0,1,0-.145l.538-.177.006-.566A.076.076,0,0,1,169.1,146.418Z" transform="translate(-161.221 -144.56)" fill="#ffe15a"/>
      <path id="Tracé_3062" data-name="Tracé 3062" d="M143.414,113.986l.563.061.24-.513a.076.076,0,0,1,.144.017l.116.554.562.07a.076.076,0,0,1,.028.142l-.492.281.107.556a.076.076,0,0,1-.126.071l-.42-.381-.5.274a.076.076,0,0,1-.107-.1l.232-.517-.414-.387A.076.076,0,0,1,143.414,113.986Z" transform="translate(-137.573 -113.49)" fill="#ffe15a"/>
      <path id="Tracé_3063" data-name="Tracé 3063" d="M144.3,220.781l-.335.457-.541-.169a.076.076,0,0,0-.085.117l.331.46-.328.462a.076.076,0,0,0,.085.117l.539-.173.338.455a.076.076,0,0,0,.138-.045l0-.566.537-.181a.076.076,0,0,0,0-.145l-.538-.177-.006-.566A.076.076,0,0,0,144.3,220.781Z" transform="translate(-137.573 -214.795)" fill="#ffe15a"/>
      <path id="Tracé_3064" data-name="Tracé 3064" d="M168.844,189.828l-.563.061-.24-.513a.076.076,0,0,0-.144.017l-.116.554-.562.07a.076.076,0,0,0-.028.142l.492.281-.107.556a.076.076,0,0,0,.126.071l.42-.381.5.274a.076.076,0,0,0,.107-.1l-.232-.517.414-.387A.076.076,0,0,0,168.844,189.828Z" transform="translate(-160.073 -185.122)" fill="#ffe15a"/>
    </g>
  </g>
</svg>
