<svg xmlns="http://www.w3.org/2000/svg" width="108.341" height="79.535" viewBox="0 0 108.341 79.535">
  <g id="client" transform="translate(0 -68.066)">
    <g id="Groupe_6909" data-name="Groupe 6909" transform="translate(83.107 102.004)">
      <g id="Groupe_6908" data-name="Groupe 6908" transform="translate(0 0)">
        <path id="Tracé_3083" data-name="Tracé 3083" d="M405.229,230.313c-3.687-1.843-10.6-1.864-10.891-1.864a1.587,1.587,0,1,0,0,3.174c1.784,0,6.962.275,9.472,1.529a1.587,1.587,0,0,0,1.419-2.839Z" transform="translate(-392.751 -228.449)" fill="#fff"/>
      </g>
    </g>
    <g id="Groupe_6911" data-name="Groupe 6911" transform="translate(0 68.066)">
      <g id="Groupe_6910" data-name="Groupe 6910" transform="translate(0 0)">
        <path id="Tracé_3084" data-name="Tracé 3084" d="M103.5,126.463l-6.554-1.873a.665.665,0,0,1-.481-.637v-2.188a11.927,11.927,0,0,0,1.517-1.244,11.675,11.675,0,0,0,3.573-8.446v-3.019l.634-1.267a10.124,10.124,0,0,0,1.063-4.5V95.106a1.587,1.587,0,0,0-1.587-1.587H86.391A10.083,10.083,0,0,0,76.32,103.591v.095a8.418,8.418,0,0,0,.884,3.745l.813,1.626v2.592a12.383,12.383,0,0,0,5.091,10.012v2.293c0,.354,0,.5-1.31.875l-3.2.914-9.252-3.364a1.585,1.585,0,0,0-.433-1.215l-2.956-3.106v-5.214c.313-.258.621-.522.919-.8A18.626,18.626,0,0,0,72.746,98.5V94.336a18.345,18.345,0,0,0,1.7-7.714V69.653a1.587,1.587,0,0,0-1.587-1.587H49.1A15.179,15.179,0,0,0,33.938,83.228v3.394a18.345,18.345,0,0,0,1.7,7.714v3.583a19.392,19.392,0,0,0,6.788,14.8v5.337l-2.956,3.106a1.585,1.585,0,0,0-.433,1.215l-9.764,3.55a8.322,8.322,0,0,0-1.962,1.028l-1.533-.767c4.564-1.987,6.01-4.781,6.08-4.92a1.587,1.587,0,0,0,0-1.419c-1.144-2.288-1.283-6.482-1.394-9.852-.037-1.122-.072-2.182-.139-3.126-.541-7.612-6.328-13.353-13.461-13.353S3.939,99.259,3.4,106.872c-.067.944-.1,2-.139,3.126-.111,3.37-.25,7.564-1.394,9.852a1.587,1.587,0,0,0,0,1.419c.069.139,1.512,2.927,6.086,4.916l-4.259,2.129A6.643,6.643,0,0,0,0,134.288v11.725a1.587,1.587,0,0,0,3.174,0V134.288a3.485,3.485,0,0,1,1.937-3.134l5.3-2.652,1.845,1.753a6.674,6.674,0,0,0,9.2,0L23.3,128.5l1.729.865a8.357,8.357,0,0,0-1.276,4.431v12.215a1.587,1.587,0,0,0,3.174,0V133.8a5.216,5.216,0,0,1,3.423-4.887l10.295-3.743,4.286,6.429a3.272,3.272,0,0,0,2.409,1.446q.164.016.327.016a3.271,3.271,0,0,0,2.319-.962l2.615-2.615v16.531a1.587,1.587,0,0,0,3.174,0V129.482l2.615,2.615a3.27,3.27,0,0,0,2.319.962q.163,0,.327-.016a3.272,3.272,0,0,0,2.409-1.446l4.286-6.428,10.295,3.743A5.217,5.217,0,0,1,81.45,133.8v12.215a1.587,1.587,0,0,0,3.174,0V133.8a8.39,8.39,0,0,0-2.347-5.807l.392-.112a8.7,8.7,0,0,0,1.477-.533L88.2,131.4v14.615a1.587,1.587,0,0,0,3.174,0V131.4l4.024-4.024a3.775,3.775,0,0,0,.675.268l6.555,1.873a3.519,3.519,0,0,1,2.541,3.369v13.129a1.587,1.587,0,1,0,3.174,0V132.885A6.707,6.707,0,0,0,103.5,126.463Zm-93.316-2.8a11.409,11.409,0,0,1-5.093-3.27,17.494,17.494,0,0,0,.9-3.8,11.834,11.834,0,0,0,4.189,5.168Zm9.092,4.3a3.5,3.5,0,0,1-4.827,0l-1.476-1.4a3.284,3.284,0,0,0,.386-1.55v-1.692a11.8,11.8,0,0,0,7.007,0V125a3.284,3.284,0,0,0,.386,1.55ZM16.86,120.67a8.6,8.6,0,0,1-8.594-8.594,1.577,1.577,0,0,0-1.848-1.564c0-.136.009-.273.014-.408.035-1.091.069-2.122.132-3.006a11.782,11.782,0,0,1,3.209-7.4,9.861,9.861,0,0,1,14.174,0,11.782,11.782,0,0,1,3.209,7.4c.063.884.1,1.914.133,3.005l.01.283a14.26,14.26,0,0,0-7.839-5.728,19.918,19.918,0,0,0-6.036-.956,1.587,1.587,0,0,0-1.1.485l-2.863,2.97a1.587,1.587,0,0,0,2.285,2.2l2.383-2.471c2.052.1,8.653.868,11.221,6.521A8.574,8.574,0,0,1,16.86,120.67Zm6.677,3v-1.893a11.739,11.739,0,0,0,4.19-5.173,17.471,17.471,0,0,0,.9,3.792A11.464,11.464,0,0,1,23.536,123.665ZM38.809,97.919V93.981a1.587,1.587,0,0,0-.158-.69,15.223,15.223,0,0,1-1.539-6.669V83.228A12,12,0,0,1,49.1,71.24H71.269V86.622a15.223,15.223,0,0,1-1.539,6.669,1.587,1.587,0,0,0-.158.69V98.5a15.236,15.236,0,0,1-4.865,11.225,15.8,15.8,0,0,1-1.218,1.032l-.027.02a15.26,15.26,0,0,1-10.3,3.072C45.114,113.328,38.809,106.33,38.809,97.919Zm8.936,31.933a.1.1,0,0,1-.088.032.1.1,0,0,1-.081-.048l-4.936-7.4,1.588-1.669,7.488,5.118Zm6.446-6.124L45.6,117.853v-2.962a17.869,17.869,0,0,0,7.362,2.125q.628.041,1.249.04a18.383,18.383,0,0,0,8.578-2.1v2.9Zm6.615,6.108a.1.1,0,0,1-.081.048.1.1,0,0,1-.088-.032l-3.971-3.971,7.488-5.118,1.589,1.669ZM89.785,128.5l-3.6-3.6a4.354,4.354,0,0,0,.1-.943v-.67a11.127,11.127,0,0,0,3.143.555c.122,0,.244.006.365.006a11.788,11.788,0,0,0,3.5-.529v.639a3.794,3.794,0,0,0,.115.925Zm5.985-10.253a8.53,8.53,0,0,1-6.25,2.422,8.884,8.884,0,0,1-8.329-9.017v-2.967a1.585,1.585,0,0,0-.168-.71l-.98-1.961a5.228,5.228,0,0,1-.549-2.326v-.095a6.905,6.905,0,0,1,6.9-6.9h13.685v6.591a6.934,6.934,0,0,1-.728,3.085l-.8,1.6a1.586,1.586,0,0,0-.168.71v3.394A8.527,8.527,0,0,1,95.77,118.243Z" transform="translate(0 -68.066)" fill="#fff"/>
      </g>
    </g>
    <g id="Groupe_6913" data-name="Groupe 6913" transform="translate(98.379 134.244)">
      <g id="Groupe_6912" data-name="Groupe 6912" transform="translate(0 0)">
        <path id="Tracé_3085" data-name="Tracé 3085" d="M466.51,380.814a1.587,1.587,0,0,0-1.587,1.587v10.181a1.587,1.587,0,0,0,3.174,0V382.4A1.587,1.587,0,0,0,466.51,380.814Z" transform="translate(-464.923 -380.814)" fill="#fff"/>
      </g>
    </g>
    <g id="Groupe_6915" data-name="Groupe 6915" transform="translate(6.788 136.342)">
      <g id="Groupe_6914" data-name="Groupe 6914" transform="translate(0 0)">
        <path id="Tracé_3086" data-name="Tracé 3086" d="M33.664,390.728a1.587,1.587,0,0,0-1.587,1.587V400.4a1.587,1.587,0,1,0,3.174,0v-8.083A1.587,1.587,0,0,0,33.664,390.728Z" transform="translate(-32.077 -390.728)" fill="#fff"/>
      </g>
    </g>
    <g id="Groupe_6917" data-name="Groupe 6917" transform="translate(40.725 82.484)">
      <g id="Groupe_6916" data-name="Groupe 6916">
        <path id="Tracé_3087" data-name="Tracé 3087" d="M218.926,140.916c-6-6-18.561-4.855-23.682-4.083a3.258,3.258,0,0,0-2.784,3.246v3.656a1.587,1.587,0,0,0,3.174,0v-3.656a.1.1,0,0,1,.083-.107,50.139,50.139,0,0,1,10.31-.5c4.949.329,8.534,1.572,10.654,3.692a1.587,1.587,0,0,0,2.244-2.244Z" transform="translate(-192.46 -136.203)" fill="#fff"/>
      </g>
    </g>
    <g id="Groupe_6919" data-name="Groupe 6919" transform="translate(33.938 137.638)">
      <g id="Groupe_6918" data-name="Groupe 6918">
        <path id="Tracé_3088" data-name="Tracé 3088" d="M161.971,396.853a1.587,1.587,0,0,0-1.587,1.587v6.788a1.587,1.587,0,0,0,3.174,0V398.44A1.587,1.587,0,0,0,161.971,396.853Z" transform="translate(-160.384 -396.853)" fill="#fff"/>
      </g>
    </g>
    <g id="Groupe_6921" data-name="Groupe 6921" transform="translate(71.269 137.638)">
      <g id="Groupe_6920" data-name="Groupe 6920">
        <path id="Tracé_3089" data-name="Tracé 3089" d="M338.393,396.853a1.587,1.587,0,0,0-1.587,1.587v6.788a1.587,1.587,0,0,0,3.174,0V398.44A1.587,1.587,0,0,0,338.393,396.853Z" transform="translate(-336.806 -396.853)" fill="#fff"/>
      </g>
    </g>
  </g>
</svg>
