<svg id="contrat" xmlns="http://www.w3.org/2000/svg" width="89.275" height="81.094" viewBox="0 0 89.275 81.094">
  <g id="Groupe_6923" data-name="Groupe 6923" transform="translate(81.531 53.232)">
    <g id="Groupe_6922" data-name="Groupe 6922">
      <path id="Tracé_3090" data-name="Tracé 3090" d="M474.815,333.478l-4.256-4.221a1.744,1.744,0,1,0-2.456,2.477l4.256,4.221a1.744,1.744,0,0,0,2.456-2.477Z" transform="translate(-467.587 -328.751)" fill="#fff"/>
    </g>
  </g>
  <g id="Groupe_6925" data-name="Groupe 6925" transform="translate(77.187 48.908)">
    <g id="Groupe_6924" data-name="Groupe 6924">
      <path id="Tracé_3091" data-name="Tracé 3091" d="M445.654,304.462a1.744,1.744,0,0,0-2.466,0l0,0a1.744,1.744,0,1,0,2.469,0Z" transform="translate(-442.675 -303.952)" fill="#fff"/>
    </g>
  </g>
  <g id="Groupe_6927" data-name="Groupe 6927" transform="translate(0)">
    <g id="Groupe_6926" data-name="Groupe 6926" transform="translate(0)">
      <path id="Tracé_3092" data-name="Tracé 3092" d="M65.3,80.922,82.216,64a6.567,6.567,0,0,0-3.17-11.048A6.574,6.574,0,0,0,74.2,43.71a6.561,6.561,0,0,0-5.118-8.53,6.575,6.575,0,0,0-9.38-7.839l-.168-.181a11.638,11.638,0,0,0-8.492-3.7H37.349A1.744,1.744,0,0,0,35.6,25.206v2.287a7.923,7.923,0,0,0,.451,2.644,6.572,6.572,0,0,0-8.76,8.135A6.572,6.572,0,0,0,22.17,46.8a6.572,6.572,0,0,0-4.84,9.242A6.573,6.573,0,0,0,14.16,67.1l3.479,3.479L.51,87.7A1.744,1.744,0,1,0,2.977,90.17L20.27,72.876a6.568,6.568,0,0,0,9.81-5.98c.088,0,.177.006.265.006a6.566,6.566,0,0,0,6.572-6.569c0-.089,0-.177-.006-.265.087,0,.175.006.262.006a6.566,6.566,0,0,0,6.572-6.569c0-.089,0-.177-.006-.265.087,0,.175.006.262.006a6.568,6.568,0,0,0,5.083-10.734L60.661,30.936A3.084,3.084,0,1,1,65.022,35.3L63.315,37,57.122,43.2a1.744,1.744,0,1,0,2.466,2.467l6.193-6.193a3.084,3.084,0,1,1,4.361,4.361l-1.707,1.707L63.95,50.025a1.744,1.744,0,1,0,2.466,2.467L70.9,48.006a3.084,3.084,0,1,1,4.361,4.361L72.921,54.71l-2.143,2.143a1.744,1.744,0,1,0,2.466,2.467l2.145-2.145a3.084,3.084,0,0,1,4.36,4.363L62.83,78.456a23.626,23.626,0,0,1-15.9,6.926,1.744,1.744,0,0,0-1.172.512L30.131,101.581a1.744,1.744,0,1,0,2.471,2.462L44.1,92.505a16.21,16.21,0,0,0,9.846,2.533l9,9a1.744,1.744,0,1,0,2.466-2.467L55.84,92a1.745,1.745,0,0,0-1.376-.505l-.553.045a12.731,12.731,0,0,1-7.277-1.584l1.121-1.125A27.1,27.1,0,0,0,65.3,80.922ZM25.7,69.343a3.084,3.084,0,0,1-4.361,0L16.626,64.63a3.084,3.084,0,1,1,4.361-4.362L25.7,64.981A3.088,3.088,0,0,1,25.7,69.343Zm6.828-6.828a3.088,3.088,0,0,1-4.362,0L23.453,57.8,21.11,55.459A3.084,3.084,0,1,1,25.471,51.1l7.055,7.055h0a3.084,3.084,0,0,1,0,4.362Zm6.828-6.828a3.088,3.088,0,0,1-4.362,0l-8.762-8.762a3.084,3.084,0,0,1,4.36-4.363l3.994,3.994,4.77,4.77h0a3.085,3.085,0,0,1,0,4.361Zm6.828-6.828a3.087,3.087,0,0,1-4.361,0L33.059,40.1l0,0-1.7-1.7a3.084,3.084,0,0,1,4.361-4.362L46.182,44.5a3.085,3.085,0,0,1,0,4.362Zm.459-8.835-4.79-4.79a7.979,7.979,0,0,0,1.67.177h.039l4.786-.022a1.744,1.744,0,0,0-.008-3.488h-.008l-4.786.022h-.022a4.429,4.429,0,0,1-4.429-4.43V26.95H51.043a8.139,8.139,0,0,1,5.939,2.586l.071.076Z" transform="translate(0.001 -23.462)" fill="#fff"/>
    </g>
  </g>
</svg>
