<svg xmlns="http://www.w3.org/2000/svg" width="36.514" height="36.514" viewBox="0 0 36.514 36.514">
  <g id="contact" transform="translate(0 0)">
    <path id="Tracé_2621" data-name="Tracé 2621" d="M18.257,2.282A15.975,15.975,0,1,1,2.282,18.257,15.994,15.994,0,0,1,18.257,2.282m0-2.282A18.257,18.257,0,1,0,36.514,18.257,18.258,18.258,0,0,0,18.257,0ZM28.435,24.361l-.1-.312a2.891,2.891,0,0,0-1.765-1.667l-2.7-.738a2.644,2.644,0,0,0-2.311.606l-.976.976a10.367,10.367,0,0,1-7.29-7.292l.976-.976a2.647,2.647,0,0,0,.6-2.311l-.736-2.7a2.889,2.889,0,0,0-1.669-1.765l-.308-.1a2.442,2.442,0,0,0-2.282.539L8.415,10.082a2.721,2.721,0,0,0-.428,1,17.242,17.242,0,0,0,17.4,17.439,2.691,2.691,0,0,0,1.05-.423L27.9,26.639A2.445,2.445,0,0,0,28.435,24.361Z" fill="#eec400"/>
  </g>
</svg>
