<svg xmlns="http://www.w3.org/2000/svg" width="28.23" height="27.604" viewBox="0 0 28.23 27.604">
  <g id="electricite" transform="translate(0 0)">
    <g id="Groupe_6784" data-name="Groupe 6784">
      <path id="Tracé_3031" data-name="Tracé 3031" d="M20.366,10.71h-.382a.779.779,0,0,0-.811.744V14.6h2V11.454A.78.78,0,0,0,20.366,10.71Z" transform="translate(-8.746 -5.2)" fill="#fff"/>
      <path id="Tracé_3032" data-name="Tracé 3032" d="M30.248,10.71h-.383a.779.779,0,0,0-.81.744V14.6H31.06V11.454A.781.781,0,0,0,30.248,10.71Z" transform="translate(-13.254 -5.2)" fill="#fff"/>
      <path id="Tracé_3033" data-name="Tracé 3033" d="M14.116.577A14.118,14.118,0,0,0,9.727,28.113a1.359,1.359,0,1,0,.845-2.584,11.444,11.444,0,0,1-4.534-2.8,11.4,11.4,0,1,1,19.475-8.039,11.321,11.321,0,0,1-3.336,8.057c-.826.741-2.875,2.232-4.105,2.232a1.866,1.866,0,0,1-1.488-.625c-.973-1.084-1.187-3.278-1.177-4.807A4.461,4.461,0,0,0,19.645,15.1V10.865H8.587V15.1a4.464,4.464,0,0,0,4.1,4.447c-.014,1.822.241,4.807,1.87,6.626A4.586,4.586,0,0,0,18.072,27.7c2.63,0,5.624-2.657,5.956-2.958l.044-.041A14.118,14.118,0,0,0,14.116.577Z" transform="translate(0 -0.577)" fill="#fff"/>
    </g>
  </g>
</svg>
