<svg id="english" xmlns="http://www.w3.org/2000/svg" width="28.422" height="18.621" viewBox="0 0 28.422 18.621">
  <path id="Tracé_2493" data-name="Tracé 2493" d="M26.293,88.276H2.129A2.129,2.129,0,0,0,0,90.4v14.364A2.129,2.129,0,0,0,2.129,106.9H26.293a2.129,2.129,0,0,0,2.129-2.129V90.4A2.129,2.129,0,0,0,26.293,88.276Z" transform="translate(0 -88.276)" fill="#41479b"/>
  <path id="Tracé_2494" data-name="Tracé 2494" d="M28.392,90.052a2.129,2.129,0,0,0-2.1-1.777h-.554l-9.078,5.948V88.275h-4.9v5.948L2.682,88.275H2.129a2.129,2.129,0,0,0-2.1,1.777l7.759,5.084H0v4.9H7.789L.029,105.119a2.129,2.129,0,0,0,2.1,1.777h.554l9.078-5.948V106.9h4.9v-5.948l9.078,5.948h.554a2.129,2.129,0,0,0,2.1-1.777l-7.759-5.084h7.789v-4.9H20.633Z" transform="translate(0 -88.275)" fill="#f5f5f5"/>
  <g id="Groupe_6700" data-name="Groupe 6700" transform="translate(0 0)">
    <path id="Tracé_2495" data-name="Tracé 2495" d="M15.681,88.276h-2.94v7.84H0v2.94H12.741v7.84h2.94v-7.84H28.422v-2.94H15.681Z" transform="translate(0 -88.276)" fill="#ff4b55"/>
    <path id="Tracé_2496" data-name="Tracé 2496" d="M10.088,306.861l10.357-6.723h-1.8l-9.422,6.116A2.132,2.132,0,0,0,10.088,306.861Z" transform="translate(-8.712 -288.377)" fill="#ff4b55"/>
    <path id="Tracé_2497" data-name="Tracé 2497" d="M315.76,300.138h-1.8l10.032,6.512a2.137,2.137,0,0,0,.682-.726Z" transform="translate(-296.532 -288.377)" fill="#ff4b55"/>
    <path id="Tracé_2498" data-name="Tracé 2498" d="M4.049,96.6l8.756,5.684h1.8l-9.922-6.44A2.137,2.137,0,0,0,4.049,96.6Z" transform="translate(-3.824 -95.422)" fill="#ff4b55"/>
    <path id="Tracé_2499" data-name="Tracé 2499" d="M301.938,97.357l9.439-6.127a2.131,2.131,0,0,0-.871-.6l-10.367,6.73Z" transform="translate(-283.477 -90.496)" fill="#ff4b55"/>
  </g>
</svg>
