<svg xmlns="http://www.w3.org/2000/svg" width="50.963" height="41.3" viewBox="0 0 50.963 41.3">
  <g id="file-picture" transform="translate(0 0)">
    <path id="Tracé_2" data-name="Tracé 2" d="M35.561,32.619c-2.217,0-4.454-.024-6.671,0a.855.855,0,0,1-.834-.834c.024-1.375.281-.834,1.668-.834,3.948,0,7.726.012,11.674,0,4.339-.012,7.6-4.011,7.5-8.339a7.068,7.068,0,0,0-5-6.671,1.108,1.108,0,0,1-.834-.834,7.9,7.9,0,0,0-9.172-6.671c-1.458.213-3-.055-4.169.834-.356.261-.692.356-.834,0C27.065,4.813,22.876,2.541,18.05,2.6A11.226,11.226,0,0,0,7.21,12.607a7.7,7.7,0,0,0,0,2.5c.071.391.332.727,0,.834a8.244,8.244,0,0,0-5.837,7.5,7.521,7.521,0,0,0,7.5,7.5c4.233.024,8.275.024,12.508,0a.74.74,0,0,1,.834.834c-.036,1.221.4.834-.834.834H9.712c-5.644,0-10.386-4.386-10.006-10.006a8.494,8.494,0,0,1,5-7.5c.344-.178.834-.431.834-.834C5.531,7.481,9.719,2.142,16.383.933A13.264,13.264,0,0,1,29.724,6.77c.32.5.277.225.834,0,5.821-2.324,12.528,1.434,14.176,7.5.095.368.478-.178.834,0,3.652,1.743,5.489,6.177,5,10.006a9.3,9.3,0,0,1-7.5,8.339,11.762,11.762,0,0,1-2.5,0C38.9,32.607,37.221,32.619,35.561,32.619Z" transform="translate(0.316 -0.734)" fill="#eec400"/>
    <path id="Tracé_3" data-name="Tracé 3" d="M153.646,148.615c-1.98,1.992-4.011,3.964-5.837,5.837-.368.368-.454.415-.834,0-.937-1.008-.96-.707,0-1.668,2.383-2.383,4.288-5.1,6.671-7.5.3-.3.478-.356.834,0,2.585,2.62,5.73,5.754,8.339,8.339.285.285.332-.273,0,0-.379.308-1.241,1.668-1.668,1.668s-.49-1.324-.834-1.668c-1.529-1.518-2.652-2.652-4.169-4.169l-.834-.834c-.166.225,0,.632,0,.834,0,6.474-.024,13.539,0,20.012,0,.534-.288.024-.834,0-1.233-.036-.834.387-.834-.834V149.449C153.623,149.283,153.646,149.018,153.646,148.615Z" transform="translate(-128.61 -128.404)" fill="#eec400"/>
  </g>
</svg>
