<svg xmlns="http://www.w3.org/2000/svg" width="39.467" height="39.467" viewBox="0 0 39.467 39.467">
  <g id="google" transform="translate(0 -0.001)">
    <g id="Groupe_10" data-name="Groupe 10">
      <g id="Groupe_9" data-name="Groupe 9">
        <path id="Tracé_223" data-name="Tracé 223" d="M20.091,28.821c-.128-.085-.259-.177-.4-.27a4.5,4.5,0,0,0-1.259-.192h-.052c-2,0-3.75,1.209-3.75,2.589,0,1.5,1.5,2.676,3.417,2.676,2.527,0,3.807-.873,3.807-2.59a2.151,2.151,0,0,0-.06-.5C21.627,29.868,21.016,29.453,20.091,28.821Z" transform="translate(-3.002 -5.817)" fill="#d3d5d8"/>
        <path id="Tracé_224" data-name="Tracé 224" d="M18.991,20.748h0a1.53,1.53,0,0,0,1.193-.546,3.134,3.134,0,0,0,.578-2.446c-.227-1.738-1.469-3.184-2.765-3.222l-.052,0a1.532,1.532,0,0,0-1.179.545,3.038,3.038,0,0,0-.56,2.394c.227,1.736,1.5,3.236,2.765,3.276Z" transform="translate(-3.317 -2.981)" fill="#d3d5d8"/>
        <path id="Tracé_225" data-name="Tracé 225" d="M19.733,0A19.733,19.733,0,1,0,39.467,19.733,19.756,19.756,0,0,0,19.733,0ZM17.458,29.342a8.644,8.644,0,0,1-2.4.324,11,11,0,0,1-2.694-.322,5.225,5.225,0,0,1-3.408-2.2,2.8,2.8,0,0,1-.366-1.381,3.506,3.506,0,0,1,.352-1.5c.9-1.909,3.257-3.194,5.873-3.194h.075a2.33,2.33,0,0,1-.315-1.17,2.488,2.488,0,0,1,.081-.62,4.712,4.712,0,0,1-4.8-4.721,5.041,5.041,0,0,1,3.633-4.429A5.928,5.928,0,0,1,15.428,9.8H21.3a.461.461,0,0,1,.271.834l-1.312.95a.469.469,0,0,1-.271.086h-.47a4.567,4.567,0,0,1,.962,2.929,4.37,4.37,0,0,1-1.834,3.427c-.914.712-.95.909-.95,1.315a3.9,3.9,0,0,0,1.35,1.449,4.538,4.538,0,0,1,2.245,4.188C21.287,26.956,19.784,28.667,17.458,29.342ZM30.71,19.278a.462.462,0,0,1-.461.461H26.914v3.336a.462.462,0,0,1-.459.461H25.5a.462.462,0,0,1-.463-.461V19.739H21.71a.46.46,0,0,1-.461-.461V18.33a.463.463,0,0,1,.461-.463h3.332V14.534a.461.461,0,0,1,.463-.461h.95a.461.461,0,0,1,.459.461v3.333h3.334a.462.462,0,0,1,.461.461v.95Z" fill="#d3d5d8"/>
      </g>
    </g>
  </g>
</svg>
