<svg xmlns="http://www.w3.org/2000/svg" width="35.347" height="36.417" viewBox="0 0 35.347 36.417">
  <path id="home" d="M111.138,223.563h-8.554a.743.743,0,0,1-.714-.771V212.783h-5.7v10.009a.742.742,0,0,1-.712.771H86.9a.742.742,0,0,1-.712-.771v-15.4a.715.715,0,1,1,1.426,0v14.628h7.126V212.014a.744.744,0,0,1,.714-.771h7.128a.742.742,0,0,1,.712.771v10.009h7.128V208.164a.715.715,0,1,1,1.426,0v14.628a.742.742,0,0,1-.712.771m4.275-16.168a.685.685,0,0,1-.5-.226L99.019,190.006,83.129,207.169a.676.676,0,0,1-1.007,0,.814.814,0,0,1,0-1.088l16.394-17.708a.672.672,0,0,1,1.007,0l16.394,17.708a.814.814,0,0,1,0,1.088.692.692,0,0,1-.5.226m-5.7-10.78a.742.742,0,0,1-.712-.771v-4.618h-4.277a.772.772,0,0,1,0-1.54h4.989a.742.742,0,0,1,.714.769v5.389a.743.743,0,0,1-.714.771" transform="translate(-81.346 -187.646)" fill="#eec400" stroke="#eec400" stroke-miterlimit="10" stroke-width="1"/>
</svg>
