<svg xmlns="http://www.w3.org/2000/svg" width="100.908" height="100.908" viewBox="0 0 100.908 100.908">
  <path id="Icon_material-picture-as-pdf" data-name="Icon material-picture-as-pdf" d="M93.817,3H33.272A10.12,10.12,0,0,0,23.182,13.091V73.636A10.12,10.12,0,0,0,33.272,83.726H93.817a10.12,10.12,0,0,0,10.091-10.091V13.091A10.12,10.12,0,0,0,93.817,3ZM50.931,40.84a7.558,7.558,0,0,1-7.568,7.568H38.318V58.5H30.75V28.227H43.363A7.558,7.558,0,0,1,50.931,35.8ZM76.158,50.931A7.558,7.558,0,0,1,68.59,58.5H55.977V28.227H68.59A7.558,7.558,0,0,1,76.158,35.8ZM96.34,35.8H88.772V40.84H96.34v7.568H88.772V58.5H81.2V28.227H96.34ZM38.318,40.84h5.045V35.8H38.318ZM13.091,23.182H3V93.817a10.12,10.12,0,0,0,10.091,10.091H83.726V93.817H13.091Zm50.454,27.75H68.59V35.8H63.545Z" transform="translate(-3 -3)" opacity="0.3"/>
</svg>
