<svg xmlns="http://www.w3.org/2000/svg" width="134.686" height="101.014" viewBox="0 0 134.686 101.014">
  <path id="Icon_awesome-image" data-name="Icon awesome-image" d="M122.059,105.514H12.627A12.627,12.627,0,0,1,0,92.888V17.127A12.627,12.627,0,0,1,12.627,4.5H122.059a12.627,12.627,0,0,1,12.627,12.627V92.888A12.627,12.627,0,0,1,122.059,105.514Zm-92.6-86.283A14.731,14.731,0,1,0,44.194,33.963,14.731,14.731,0,0,0,29.463,19.231ZM16.836,88.679H117.85V59.216L94.829,36.195a3.157,3.157,0,0,0-4.464,0L54.716,71.843l-14.6-14.6a3.157,3.157,0,0,0-4.464,0L16.836,76.052Z" transform="translate(0 -4.5)" opacity="0.3"/>
</svg>
