<svg xmlns="http://www.w3.org/2000/svg" width="39.467" height="39.467" viewBox="0 0 39.467 39.467">
  <g id="in" transform="translate(0 -0.001)">
    <g id="_005-linkedin-button" data-name="005-linkedin-button" transform="translate(0)">
      <g id="Groupe_8" data-name="Groupe 8">
        <g id="Groupe_7" data-name="Groupe 7">
          <path id="Tracé_222" data-name="Tracé 222" d="M19.733,0A19.733,19.733,0,1,0,39.467,19.733,19.734,19.734,0,0,0,19.733,0ZM14.8,29.292H9.867V12.025H14.8ZM12.486,10.967A2.314,2.314,0,1,1,14.8,8.653,2.312,2.312,0,0,1,12.486,10.967Zm19.58,18.325H27.133V18.616c0-1.251-.358-2.126-1.894-2.126A2.959,2.959,0,0,0,22.2,18.616V29.292H17.267V12.025H22.2v1.65a8.251,8.251,0,0,1,4.933-1.648c1.6,0,4.933.957,4.933,6.739V29.292Z" fill="#d3d5d8"/>
        </g>
      </g>
    </g>
  </g>
</svg>
