<svg xmlns="http://www.w3.org/2000/svg" width="33.012" height="27.362" viewBox="0 0 33.012 27.362">
  <g id="investment" transform="translate(0 -43.819)">
    <g id="Groupe_6831" data-name="Groupe 6831" transform="translate(12.149 48.904)">
      <g id="Groupe_6830" data-name="Groupe 6830" transform="translate(0 0)">
        <path id="Tracé_3067" data-name="Tracé 3067" d="M193.623,130.317h-1.7a1.576,1.576,0,0,1,0-3.151h3.39a.967.967,0,0,0,0-1.934h-1.576v-1.576a.967.967,0,1,0-1.934,0v1.579a3.509,3.509,0,0,0,.12,7.017h1.7a1.576,1.576,0,1,1,0,3.151h-3.39a.967.967,0,0,0,0,1.934h1.576v1.576a.967.967,0,0,0,1.934,0v-1.579a3.509,3.509,0,0,0-.12-7.017Z" transform="translate(-188.418 -122.689)" fill="#fff"/>
      </g>
    </g>
    <g id="Groupe_6833" data-name="Groupe 6833" transform="translate(0 56.533)">
      <g id="Groupe_6832" data-name="Groupe 6832">
        <path id="Tracé_3068" data-name="Tracé 3068" d="M28.549,246.165a.967.967,0,0,0-1.274.5,11.747,11.747,0,0,1-22.357-2.783l2.565,1.714a.967.967,0,0,0,1.075-1.608L4.33,241.161a.967.967,0,0,0-1.342.267L.163,245.657a.967.967,0,1,0,1.608,1.075l1.334-2a13.685,13.685,0,0,0,25.942,2.7A.967.967,0,0,0,28.549,246.165Z" transform="translate(0 -240.998)" fill="#fff"/>
      </g>
    </g>
    <g id="Groupe_6835" data-name="Groupe 6835" transform="translate(3.884 43.819)">
      <g id="Groupe_6834" data-name="Groupe 6834" transform="translate(0 0)">
        <path id="Tracé_3069" data-name="Tracé 3069" d="M88.936,52.467a.967.967,0,0,0-1.342.267l-1.334,2a13.685,13.685,0,0,0-25.942-2.7.967.967,0,0,0,1.773.775,11.747,11.747,0,0,1,22.357,2.783L81.882,53.87a.967.967,0,1,0-1.075,1.608L85.036,58.3a.967.967,0,0,0,1.341-.267L89.2,53.809A.967.967,0,0,0,88.936,52.467Z" transform="translate(-60.237 -43.819)" fill="#fff"/>
      </g>
    </g>
  </g>
</svg>
