<svg xmlns="http://www.w3.org/2000/svg" width="247.187" height="273.371" viewBox="0 0 247.187 273.371">
  <g id="ivoire" transform="translate(13725.704 21895.371)">
    <path id="Tracé_3151" data-name="Tracé 3151" d="M181.753,479.14l-3.474-.011c-6.815-.961-10.876-5.582-11.221-12.713-.288-5.966.779-11.815,1.5-17.693a37.094,37.094,0,0,0,.3-9.2,12.22,12.22,0,0,1,1.038-7c.394-.818.669-1.694.991-2.546,1.65-4.381.668-8.536-1.383-12.445-1.694-3.229-4.134-6-6.209-9a7.394,7.394,0,0,0-7.235-3.255c-4.731.587-8.195-.844-10.938-4.611a9.037,9.037,0,0,0-3.433-2.5c-1.629-.817-3.252-1.65-4.855-2.516-5.315-2.872-6.743-5.728-5.659-11.643a20.838,20.838,0,0,1,6.967-12.606,3.436,3.436,0,0,0,1.042-2.085c.862-3.872,1.251-7.711-.091-11.619a51.4,51.4,0,0,1-1.948-8.306c-1-6.055,1.4-10.731,7.069-13.318,2.271-1.037,4.652-1.809,6.885-2.968,1.006-.523,1.425-1.076,1.161-2.092a8.089,8.089,0,0,1,2.481-8.241,1.039,1.039,0,0,0,.308-1.217,5.327,5.327,0,0,1-.031-3.038,16.129,16.129,0,0,0-.178-7.108,5.322,5.322,0,0,1,1.136-4.83c2.156-2.389,3.741-5.351,6.809-6.859,1.077-.529.06-1.049-.211-1.425a12.037,12.037,0,0,1-.038-14.5,17.9,17.9,0,0,1,3.936-4.017,1.3,1.3,0,0,0,.445-1.983,30.084,30.084,0,0,1-3.326-13.469,51.5,51.5,0,0,0-1.876-10.4,13.886,13.886,0,0,0-2.548-4.589c-2.779-3.932-3.928-8.193-2.4-12.924a12,12,0,0,1,4.06-6.016c5.18-3.928,9.814-8.53,15.191-12.21,3.177-2.174,6.534-3.759,10.518-3.318a21.364,21.364,0,0,1,8.871,3.365,40.944,40.944,0,0,1,5.36,3.959c.621.539.984.518,1.489-.148,1.926-2.54,4.118-4.754,7.4-5.455.676-.145.692-.646.788-1.15,1.4-7.4,7.928-11.3,15.119-9.01a8.047,8.047,0,0,0,3.346.339,19.509,19.509,0,0,1,7.471.349c5.4,1.572,8.021,5.472,9.018,10.743.428,2.267.447,2.3,2.588,1.772a67.03,67.03,0,0,1,26.13-1.034,10.167,10.167,0,0,1,6.949,4.55c2.532,3.587,5.024,7.2,8.448,10.05a17.5,17.5,0,0,0,11.292,4.219,12,12,0,0,1,4.363.686,1.318,1.318,0,0,0,1.652-.347c1.389-1.431,2.837-2.805,4.251-4.213a12.2,12.2,0,0,1,9.128-3.982c5.068.121,10.155-.179,15.192.664a27.9,27.9,0,0,1,5.225,1.577,44.473,44.473,0,0,0,6.445,2.179,9.267,9.267,0,0,1,6.261,4.918,11.473,11.473,0,0,0,2.1,2.856,14.488,14.488,0,0,1,3.95,6.882,17.847,17.847,0,0,0,1.348,3.682,6.008,6.008,0,0,0,3.508,3.221c5.175,1.815,7.328,6.024,8.129,11.1.463,2.935.743,5.891-.247,8.8a1.418,1.418,0,0,0,.094,1.155,31.733,31.733,0,0,1,3.1,13.732,113.666,113.666,0,0,0,2.286,19.646c1.377,6.672-.688,12.383-4.567,17.615-2.783,3.754-5.707,7.406-8.612,11.068a6.265,6.265,0,0,0-1.448,3.54c-.558,7.168-3.263,13.685-6.154,20.151-2.021,4.521-4.155,9.021-5.26,13.877-2.014,8.854-.153,17.2,3.695,25.2,2.1,4.363,4.611,8.516,6.571,12.952a95.418,95.418,0,0,1,5.206,16.767c1.829,7.738-2.8,14.035-8.772,17.5-2.2,1.274-4.65,1.008-7,.452a9.232,9.232,0,0,0-4.838-.048,18.188,18.188,0,0,1-4.067.414c-2.938.137-5.89.01-8.775.84a5.713,5.713,0,0,1-2.551-.013,67.228,67.228,0,0,0-18.307-.557c-5.614.466-11.191,1.38-16.784,2.1-9.329,1.2-18.7,1.979-28.079,2.642-5.3.374-10.6.291-15.9.525a77.164,77.164,0,0,0-25.988,6.091c-10.22,4.194-20.321,8.674-30.478,13.022q-4.786,2.049-9.593,4.052A13.086,13.086,0,0,1,181.753,479.14Z" transform="translate(-13856.535 -22101.141)" fill="#d87642"/>
    <path id="Tracé_3152" data-name="Tracé 3152" d="M172.57,410.047c-6.034.224-11.033-1.013-14.581-5.871-2.667-3.653-2.492-8.532,1.329-10.824,5.013-3.007,5.524-7.676,6.2-12.544.55-3.959-.436-7.688-1.518-11.421a58.252,58.252,0,0,1-1.381-6.335,2.606,2.606,0,0,1,1.3-3.038c2.509-1.438,4.632-3.476,7.324-4.63a6.732,6.732,0,0,0,4.177-5.427c.216-1.287.713-2.526.93-3.812a8.408,8.408,0,0,1,5.852-6.752c1.328-.5,1.368-1.042.484-1.976a19.782,19.782,0,0,0-2.194-2.383,5.087,5.087,0,0,1-1.906-5.324,13.149,13.149,0,0,1,3.651-7.2c1.233-1.272,2.56-1.719,4.111-.858,1.115.619,1.53.135,1.838-.821.3-.921.6-1.838.886-2.763.754-2.478.493-4.57-2.089-5.91a6.891,6.891,0,0,1-1.636-1.494,5.561,5.561,0,0,1-.223-8,24.682,24.682,0,0,1,4.789-4.116,3.27,3.27,0,0,0,1.319-4.156c-.807-2.444-2.027-4.7-2.953-7.093a15.4,15.4,0,0,1-1.136-5.318,58.809,58.809,0,0,0-2.2-13.977,15.527,15.527,0,0,0-3.039-6.244,9.143,9.143,0,0,1-2.36-4.854,7.1,7.1,0,0,1,4.748-7.55c3.775-1.18,6.512-3.65,9.423-6.006a44.764,44.764,0,0,1,4.616-3.238,7.666,7.666,0,0,1,7.814-.267,35.316,35.316,0,0,1,9.351,7.1c2.085,2.041,2.669,2.09,4.769,0,1.572-1.567,3.023-3.262,4.444-4.97,1.335-1.605,2.844-2.455,4.922-1.571,1.059.45,1.735-.356,2.47-.768,1.7-.951,3.047-2.19,2.809-4.438a8.909,8.909,0,0,1,.507-3.194c.615-2.321,1.586-3.059,3.862-2.264a17.931,17.931,0,0,0,7.408.641,19.813,19.813,0,0,1,2.735-.013,5.255,5.255,0,0,1,5.084,4.076,58.551,58.551,0,0,1,1.324,7.045c.617,3.558,1.287,4.108,4.787,3.054a106.292,106.292,0,0,1,12.515-2.673,40.462,40.462,0,0,1,11.409-.063,5.336,5.336,0,0,0,1.185.139c3.7-.471,5.807,1.488,7.723,4.411,3.111,4.744,6.87,8.963,11.95,11.773a20.048,20.048,0,0,0,8.4,2.7,72.866,72.866,0,0,1,9.375,1.6,2.651,2.651,0,0,0,2.8-.992c2.127-2.372,4.428-4.594,6.746-6.784a4.973,4.973,0,0,1,3.736-1.39c2.906.113,5.818.119,8.726.1a25.226,25.226,0,0,1,10.3,2.137,21.348,21.348,0,0,0,5.661,1.856,3.088,3.088,0,0,1,2.725,2.5,3.879,3.879,0,0,0,1.575,2.312,10.524,10.524,0,0,1,3.79,5.926,19.9,19.9,0,0,0,2.695,6.064,9.562,9.562,0,0,0,6.927,4.771c2.685.375,3.477,1.773,2.8,4.44a17.781,17.781,0,0,1-1.9,4.194c-.8,1.437-1.094,2.441.321,3.951,2.078,2.218,2.347,5.359,2.8,8.29a27.973,27.973,0,0,1,.528,4.925c-.179,6.6.956,13.053,2.274,19.463.883,4.294-.333,7.973-2.527,11.518a104.822,104.822,0,0,1-7.5,10.188c-2.578,3.222-4.644,6.421-4.993,10.9-.554,7.115-3.906,13.506-6.743,19.972q-2.163,4.929-4.022,9.978c-3.04,8.214-2.338,16.167,1.245,24.058,3.091,6.807,7.012,13.174,10.262,19.893a82.168,82.168,0,0,1,5.675,17.672c1.2,5.256-2.532,8.749-7.879,7.849a6.274,6.274,0,0,1-1.33-.308,7.348,7.348,0,0,0-6.327-.03c-1.9.884-4.16-.023-6.265.061a7.511,7.511,0,0,0-3.483.591,3.937,3.937,0,0,1-3.17.124,13.926,13.926,0,0,0-6.908-.456c-2.09.354-4.156-.385-6.281-.336-10.385.241-20.7,1.327-31.022,2.35-9.814.972-19.642,2.185-29.5,2.043-14.045-.2-27.176,3.216-39.914,8.715-9.306,4.018-18.46,8.385-27.923,12.045-1.9.736-3.643,1.856-5.656,2.373-4.306,1.106-7.91-.864-9.185-5.129-.966-3.232-.761-6.546-.6-9.85a55.717,55.717,0,0,1,5.29-21.248,33.437,33.437,0,0,0,1.838-5.855c.8-3.058-.544-5.841-.8-8.757a11.862,11.862,0,0,0-2.335-5.767,116.76,116.76,0,0,0-11.189-14.026,5.781,5.781,0,0,0-3.655-1.925C177.91,410.49,175.128,409.335,172.57,410.047Z" transform="translate(-13873.179 -22116.678)" fill="#fefefe"/>
    <path id="Tracé_3153" data-name="Tracé 3153" d="M180.366,410.644a25.353,25.353,0,0,1-5.838-.245,10.248,10.248,0,0,1-6.51-4.33,4.053,4.053,0,0,1,.181-5.02,2.262,2.262,0,0,1,.61-.593c6.62-3.444,6.975-9.877,7.711-16.127.558-4.733-1.13-9.105-2.189-13.579a24.567,24.567,0,0,0-.646-2.826c-.649-1.769.239-2.574,1.742-3.013a25.54,25.54,0,0,0,5.929-2.577,9.576,9.576,0,0,0,4.753-6.569c.344-1.67.9-3.3,1.236-4.967a4.556,4.556,0,0,1,2.832-3.388c1.034-.477,2.093-.9,3.109-1.411,1.7-.85,2.038-1.678,1.339-3.46a17.287,17.287,0,0,0-4.467-5.98,4.633,4.633,0,0,1-1.213-5.44,2.493,2.493,0,0,1,3.827-1.467c1.275.628,2.5,1.386,3.809,1.913a3.815,3.815,0,0,0,4.9-1.2,16.266,16.266,0,0,0,3.466-8.416c.2-1.369-.746-2.223-1.582-3.064-1.821-1.83-4.115-3.052-6.115-4.659-3.662-2.943-3.688-3.707-.048-6.7.837-.688,1.693-1.353,2.559-2a6.192,6.192,0,0,0,2.428-7.1A14.238,14.238,0,0,0,201.1,295.2c-2.322-4.195-3.082-8.717-3.383-13.441a51.332,51.332,0,0,0-2.681-12.673A19.474,19.474,0,0,0,191.8,263.5c-2.07-2.751-1.861-4.343.9-6.317,3.721-2.661,6.961-5.9,10.576-8.68.948-.729,1.967-1.368,2.905-2.109,2.083-1.645,4.16-1.435,6.34-.181a44.737,44.737,0,0,1,8.22,6.383c3.605,3.385,5.911,3.405,9.627.126a56.016,56.016,0,0,0,4.577-5.08c.468-.527.787-1,1.637-.378.57.418,1.434.173,2.151-.079a21.058,21.058,0,0,0,3.973-1.968c1.644-1,1.667-2.758,1.844-4.383a26.029,26.029,0,0,0,.059-3.42c-.028-1.218.645-1.628,1.622-1.2,3.083,1.362,6.264.885,9.44.693,2.176-.132,2.81.262,3.241,2.343.462,2.23.742,4.5,1.177,6.732.909,4.667,3.493,6.4,8.152,5.277,3.929-.945,7.83-1.948,11.824-2.643,4.515-.786,8.954-.415,13.455-.131a5.369,5.369,0,0,1,4.556,2.8c3.607,5.339,7.856,10.076,13.632,13.2a23.907,23.907,0,0,0,10.747,3.073c3.06.083,5.848,1.5,8.891,1.522.682.006,1.364.094,2.045.158a1.973,1.973,0,0,0,2.246-1.249c1.2-2.3,3.537-3.694,5.164-5.649a6.654,6.654,0,0,1,6.459-2.4,31.188,31.188,0,0,0,4.788.071,22.481,22.481,0,0,1,10.3,2.033,18.046,18.046,0,0,0,5.161,1.739c.276.033.6.04.648.415.236,1.9,1.7,2.908,2.973,4.017a7.405,7.405,0,0,1,2.264,3.721c1.2,4.167,3.029,7.986,6.437,10.862a9.284,9.284,0,0,0,4.015,2.177c1.554.328,1.836,1.2,1.256,2.492-.747,1.659-1.722,3.23-2.333,4.934-1.052,2.932-.966,3.095,1.387,5.42,1.652,1.633,1.839,3.864,2.191,5.982a46.569,46.569,0,0,1,.766,9.2c-.187,5.481,1.341,10.711,2.173,16.039a11.462,11.462,0,0,1-1.238,7.734c-2.591,4.6-6.041,8.562-9.209,12.737-.62.817-1.194,1.67-1.833,2.471a10.3,10.3,0,0,0-2.293,6.932c.09,5.609-1.509,10.921-3.625,16.057-1.885,4.578-3.7,9.207-5.955,13.6-4.953,9.666-4.414,19.144.167,28.724,2.729,5.707,5.728,11.271,8.793,16.793,2.916,5.254,4.25,11.027,6.033,16.651.957,3.017-.834,4.735-3.985,4.191a6.811,6.811,0,0,1-1.5-.339c-2.633-1.114-5.1-1.581-7.882.024-1.2.691-3.12.125-4.712.13-1.863,0-3.752-.327-5.513.687a2.3,2.3,0,0,1-1.828-.143,15.968,15.968,0,0,0-6.085-.523c-3.161.2-6.3-.3-9.493-.117-10.609.6-21.074,2.283-31.569,3.764-9.375,1.323-18.757,2.575-28.252,2.57-12.635-.006-24.564,3.172-36.139,7.965-10.254,4.246-20.212,9.181-30.587,13.147-1.483.567-2.793,1.527-4.345,1.972-2.919.837-4.72-.11-5.347-3.053-.906-4.253-.219-8.517.133-12.772a42.865,42.865,0,0,1,3.772-13.423,41.3,41.3,0,0,0,3.116-10.436c.365-2.51-.7-4.7-.9-7.051a9.951,9.951,0,0,0-2.473-5.617c-4.5-5.524-8.818-11.2-13.156-16.856-1.458-1.9-2.987-3.282-5.632-3.515C185.167,411.113,182.638,410.213,180.366,410.644Z" transform="translate(-13880.431 -22121.018)" fill="#1b765e"/>
    <path id="Tracé_3154" data-name="Tracé 3154" d="M296.879,439.426a4.451,4.451,0,0,0,.059-3.669,13.5,13.5,0,0,0-3.331-5.11c-.466-.461-.732-.725.014-1.272a60.987,60.987,0,0,0,4.922-3.965A16.1,16.1,0,0,1,314.12,421.6c5.075,1.282,10.137,2.628,15.266,3.65a24.973,24.973,0,0,0,13.45-1.31c11.455-4.111,18.3-13.765,18.236-25.64-.07-12.8-7.172-23.229-18.584-27.194-6.026-2.094-12.1-1.622-18.206-.251-9.443,2.12-18.827,4.527-28.43,5.884-10.212,1.444-20.357,1.439-30.31-1.631-7.971-2.459-12.663-7.888-13.746-16.174-1.551-11.857,1.14-22.572,9.321-31.542,4.613-5.058,10.274-8.073,17.37-7.663a11.284,11.284,0,0,1,1.191.11c.331.055.651.171,1.209.324A8.6,8.6,0,0,0,278,323.186a1.446,1.446,0,0,1-1.206.811c-4.164.38-7.255,2.684-9.679,5.831-5.741,7.453-8.3,15.845-6.2,25.173,1.481,6.586,6.31,10.129,12.582,11.586,5.781,1.343,11.585.317,17.3-.819,4.409-.877,8.773-1.983,13.141-3.054.876-.214,1.2-.188,1.231.833.03.877.233,2.168,1.179,2.2,1.018.034,1.361-1.153,1.574-2.153.536-2.52,1.16-3.108,3.3-3.461,1.006-.166,1.54-.007,1.3,1.181a2.47,2.47,0,0,0,.513,2.549c.676.63,1.251.608,1.528-.307a19.033,19.033,0,0,0,.468-2.511c.331-2.077,3.711-4.369,5.728-3.867.675.168.373.731.369,1.11a8.643,8.643,0,0,0,.887,4.909,30.109,30.109,0,0,1,1.905-4.982c.862-1.409,1.907-2.564,3.713-2.68.847-.054,1.312.112.993,1.129-.539,1.715-.279,3.468-.22,5.709,1.589-1.906,1.833-4.09,3.287-5.519,1.593-1.565,3.536-1.949,5.9-1.8a8.168,8.168,0,0,0-1.076,7.2c2.157-2.556,2.5-7.025,7.4-6.141-1.09,2.127-3.069,3.862-2.456,6.844,2.643-3.461,5.663-5.867,10.354-4.8a7.9,7.9,0,0,0-1.913,5.6c5.435-3.825,7.231-3.967,9.947-.676-2.073,1.044-4.028,2.235-3.738,5.114a44.264,44.264,0,0,1,4.036-2.087c1.993-.794,4.016-.93,5.768.664.7.635,1.273,1.18-.246,1.692-1.705.576-2.966,1.846-4.181,3.851,4.62-1.462,8.824-2.184,11.6,2.614-4.55,1.1-4.55,1.1-5.158,2.232,1.123,0,2.245-.034,3.363.007a5.625,5.625,0,0,1,5.7,4.687c.215.861.142,1.2-.818,1.325-1.113.143-2.879-.181-2.856,1.388.013.914,1.772.77,2.763,1.014,3.379.834,3.588.919,3.243,4.494a46.386,46.386,0,0,1-13.469,29.187c-3.141,3.151-6.4,6.186-9.569,9.305a34.5,34.5,0,0,0-2.879,3.156c-3.4,4.295-3.157,7.911.731,11.8,1.391,1.393,1.4,1.4-.3,2.538a28.158,28.158,0,0,1-14.537,4.387c-1.418.077-2.845.012-4.4.012.66,2.425,2.545,3.175,4.525,3.753,2.229.651,2.218.605,1.274,2.816a17.08,17.08,0,0,1-2.73,4.118c-2.471,2.983-2.558,6.335-1.642,9.858A2.637,2.637,0,0,0,338.475,473a21.615,21.615,0,0,1,11.572,6.849c1.79,1.891,4.12,3.032,6.33,4.326a19.335,19.335,0,0,1,5.578,4.453c.4.5.919,1.292,1.63.976s.4-1.227.375-1.873c-.157-3.753-1.4-7.246-2.666-10.727-1.086-3-2.2-5.984-3.371-8.946a2.406,2.406,0,0,1,.6-2.908,55.977,55.977,0,0,1,9.347-7.72,1.25,1.25,0,0,1,1.319-.282,46.782,46.782,0,0,1-4.363,4.588c-4.063,3.276-4.316,7.266-2.705,11.793,1.277,3.591,2.522,7.2,3.668,10.829a24.727,24.727,0,0,1,.554,12.137c-5.291-5.848-11.991-9.072-19.611-10.511a19.985,19.985,0,0,0-11.1.918,23.867,23.867,0,0,1-17.054.563c-7.867-2.815-11.743-8.951-13.572-16.716-.968-4.109-.833-8.394-2.049-12.465a37.837,37.837,0,0,0-11.247-18.22c-7.134-6.229-15.524-7.232-22.252,1.3,1.536-.516,2.854-1.006,4.2-1.4,9.287-2.735,16.435.552,20.419,9.378a48.265,48.265,0,0,1,3.775,16.569,47.785,47.785,0,0,0,.845,7.978c1.468,5.993,5.553,9.768,10.686,12.678,4.409,2.5,9.148,4.374,13.421,7.129,4.907,3.164,8.063,7.422,8.73,13.393.165,1.475-.325,1.765-1.568,1.824-4.5.214-9.006.776-13.5.667-14.492-.351-28.091,3.25-41.291,8.817q-4.169,1.758-8.294,3.618a2.892,2.892,0,0,1-2.437.062,42.31,42.31,0,0,1-8.024-4.146c-3.557-2.334-5.072-5.782-5.882-9.791a58.659,58.659,0,0,1-1.394-10.462c-.154-7.325-1.6-14.285-6.385-20.25-3.427-4.268-6.625-8.719-10.531-12.581-1.975-1.953-4.052-3.587-7.122-3.508-1.8.046-3.511-.886-5.353-1.019-1.231-.089-.406-.931-.227-1.343a63.674,63.674,0,0,1,7.908-13.543c6.876-8.93,15.334-15.713,26.261-19.067a33.7,33.7,0,0,1,15.2-1.258c.393.06.882.23,1.179.073,1.994-1.056,3.306.229,4.726,1.255a24.267,24.267,0,0,0,9.72,4.008,16.759,16.759,0,0,1,11.776,8.267A7.731,7.731,0,0,0,296.879,439.426Z" transform="translate(-13914.47 -22175.916)" fill="#fefefe"/>
    <path id="Tracé_3155" data-name="Tracé 3155" d="M634.208,448.536c.811-.272,1,.351,1.271.712,6.7,8.749,10.517,18.488,9.885,29.656-.507,8.952-3.658,17.083-8.095,24.776a115.843,115.843,0,0,1-15.424,20.436,11.85,11.85,0,0,1-5.375,3.512c-3.382.994-6.024-.876-6.024-4.4,0-4.38,2.488-7.5,5.663-10.079a75.314,75.314,0,0,0,12.427-12.195c10.617-13.714,12.77-28.962,8.158-45.416-.337-1.2-.739-2.392-1.13-3.581A15.63,15.63,0,0,0,634.208,448.536Z" transform="translate(-14171.353 -22260.447)" fill="#fefefe"/>
    <path id="Tracé_3156" data-name="Tracé 3156" d="M690.7,389.054c-2.222-.682-3.389-1.669-3.389-4.005a59.364,59.364,0,0,0-.844-7.8,4,4,0,0,0-1.537-2.941c-1.156-.805-1.713-.536-1.766.872-.112,2.96-.178,5.922-.274,8.882a11.448,11.448,0,0,1-.151,1.148c-1.84-.286-2.6-1.083-2.5-3.04.366-7.452.555-14.913.759-22.372.029-1.06.242-1.554,1.439-1.436,1.47.146,2.96.078,4.439.146a3.56,3.56,0,0,1,3.574,2.868,16.073,16.073,0,0,1-.691,10.208,1.307,1.307,0,0,1-.328.592c-2.051,1.4-1.124,2.945-.569,4.778C690.032,380.821,690.092,384.9,690.7,389.054Z" transform="translate(-14217.162 -22201.291)" fill="#fefefe"/>
    <path id="Tracé_3157" data-name="Tracé 3157" d="M305.147,889.951c-5.6,3.289-12.151,4.347-17.829,8.548.716-7.76,1.819-14.974,4.529-22.269A30.593,30.593,0,0,0,305.147,889.951Z" transform="translate(-13959.253 -22541.232)" fill="#fefefe"/>
    <path id="Tracé_3158" data-name="Tracé 3158" d="M718.38,522.026c-.58-1.2.036-1.611.372-2.086,3.563-5.039,5.37-10.741,6.363-16.754a2.628,2.628,0,0,0,.045-.51c-.018-.557.057-1.281-.633-1.392s-.679.654-.812,1.1a115.245,115.245,0,0,1-4,11.425,23.923,23.923,0,0,1-2.911,5.543,10.516,10.516,0,0,1,.283-6.834c1.345-4.165,2.919-8.259,3.947-12.521,1.529-6.338,1.6-10.769.49-18.6,4.756,6.743,5.953,14.311,4.635,22.289C725.073,510.291,722.965,516.558,718.38,522.026Z" transform="translate(-14240.874 -22282.059)" fill="#fefefe"/>
    <path id="Tracé_3159" data-name="Tracé 3159" d="M593.1,825.045c2.568-.081,4.3,1.494,4.531,4.74.171,2.382.359,4.762.589,7.138.066.674.033,1.044-.794,1.1-2.381.175-4.759.414-7.133.671a1.113,1.113,0,0,1-1.378-.871,63.661,63.661,0,0,0-3.612-8.078,7.4,7.4,0,0,1-.607-1.586c-.379-1.61.107-2.429,1.757-2.634C588.427,825.287,590.422,825.231,593.1,825.045Z" transform="translate(-14154.374 -22507.631)" fill="#fefefe"/>
    <path id="Tracé_3160" data-name="Tracé 3160" d="M386.312,363.5a25.656,25.656,0,0,1,1.068-7.925,10.845,10.845,0,0,1,1.564-3.206,4.1,4.1,0,0,1,7.014.173,12.354,12.354,0,0,1,1.909,5.952c.389,4.408.255,8.772-1.555,12.915a8.328,8.328,0,0,1-1.238,2.029,4.07,4.07,0,0,1-6.693-.4C386.931,370.917,386.274,367.891,386.312,363.5Z" transform="translate(-14024.231 -22196.125)" fill="#fefefe"/>
    <path id="Tracé_3161" data-name="Tracé 3161" d="M726.317,398.255c-2.222-1.386-4.373-2.754-6.552-4.074-.795-.482-.515-1.2-.493-1.828.305-9.055.645-18.109.952-27.164.118-3.475.09-3.474,3.6-3.247q1.109.072,2.219.113c2.362.085,2.3.08,2.234,2.4-.03,1.1-.335,1.466-1.474,1.406-1.222-.064-2.866-.758-3.571.083-.648.773-.326,2.382-.381,3.626-.091,2.049-.108,4.1-.224,6.149-.048.849.143,1.27,1.083,1.238.735-.025,1.475.117,2.214.164a1.719,1.719,0,0,1,1.553,2.66c-.29.593-.776.354-1.186.347-3.878-.066-3.866-.071-3.961,3.785-.054,2.221-.075,4.448-.263,6.66a2.015,2.015,0,0,0,1.249,2.3c.51.241.929.671,1.439.913C726.744,394.728,726.862,396.307,726.317,398.255Z" transform="translate(-14242.746 -22203.598)" fill="#fefefe"/>
    <path id="Tracé_3162" data-name="Tracé 3162" d="M618.381,370.246c.021-3.584.227-6.422,1.454-9.072.931-2.011,2.194-3.637,4.7-3.594,2.44.042,3.753,1.654,4.449,3.657a20.691,20.691,0,0,1-.7,15.64,4.151,4.151,0,0,1-4.073,2.6,4.712,4.712,0,0,1-4.452-2.64A13.676,13.676,0,0,1,618.381,370.246Z" transform="translate(-14176.562 -22200.787)" fill="#fefefe"/>
    <path id="Tracé_3163" data-name="Tracé 3163" d="M510.745,355.62c-.007-.745.128-1.165,1.025-1.1,1.362.1,2.732.092,4.1.129a4.87,4.87,0,0,1,4.826,3.846,16.667,16.667,0,0,1-.4,11.053,4.814,4.814,0,0,1-4.66,3.388c-1.48.032-2.965,0-4.441.1-.967.063-1.112-.353-1.1-1.193" transform="translate(-14105.485 -22198.779)" fill="#fefefe"/>
    <path id="Tracé_3164" data-name="Tracé 3164" d="M688.85,590.12c1.352,12.068-.368,27.256-9.557,34.172,1.335-3.482,2.716-6.7,3.641-10.079a32.883,32.883,0,0,0,1.261-13.842,2.517,2.517,0,0,1,.069-1.5C685.887,596.084,687.362,593.218,688.85,590.12Z" transform="translate(-14216.545 -22353.43)" fill="#fefefe"/>
    <path id="Tracé_3165" data-name="Tracé 3165" d="M460.848,353.936c-.013-.927.22-1.326,1.236-1.242,1.816.149,3.641.193,5.463.257,1.842.065.735,1.412.914,2.163s-.027,1.352-1.065,1.165a7.87,7.87,0,0,0-1.875-.091c-.864.054-2.14-.535-2.5.279a9.749,9.749,0,0,0-.3,3.537c-.014.574.494.518.882.53a15.852,15.852,0,0,0,2.39.03c1.652-.2,1.995.526,1.878,2.042-.085,1.1-.365,1.439-1.478,1.391-1.219-.052-2.873-.673-3.562.18-.64.793-.224,2.4-.39,3.629-.137,1.015.1,1.468,1.212,1.431,1.135-.037,2.277.162,3.413.135.94-.022,1.271.38,1.058,1.213-.184.718.636,1.928-1.025,1.983a50.048,50.048,0,0,0-5.782.487c-1.012.153-1.129-.148-1.118-1.013" transform="translate(-14072.735 -22197.574)" fill="#fefefe"/>
    <path id="Tracé_3166" data-name="Tracé 3166" d="M586.778,370.018q1.345-5.469,2.691-10.938c.542-2.19.549-2.189,3.1-1.827q-1.906,7.275-3.8,14.519c-.274,1.045-.541,2.093-.852,3.128-.189.629,0,1.614-1.226,1.374-.916-.178-1.887,0-2.138-1.4-1.075-5.991-2.252-11.964-3.393-17.945,2.588-.393,2.583-.392,3.022,2.022q1.009,5.544,2.031,11.086C586.406,370.32,586.6,370.344,586.778,370.018Z" transform="translate(-14152.125 -22200.234)" fill="#fdfefe"/>
    <path id="Tracé_3167" data-name="Tracé 3167" d="M431.478,357.081c.055-1.271-.169-1.9-1.608-1.755-.608.061-1.638.4-1.832-.357a8.308,8.308,0,0,1,.059-3.044c.067-.514.656-.319,1.016-.307,2.508.077,5.014.2,7.523.266.69.019.975.189,1.005.968.1,2.681.086,2.8-2.565,2.638-1.086-.066-1.183.379-1.21,1.259-.153,5.073-.366,10.144-.535,15.217-.025.744-.084,1.238-1.038,1.385-1.112.171-1.5,0-1.45-1.226" transform="translate(-14051.54 -22196.844)" fill="#fdfefd"/>
    <path id="Tracé_3168" data-name="Tracé 3168" d="M662.381,382.355c-.007.456.384,1.581-.686,1.294-.822-.22-2.255.047-2.237-1.519q.028-2.479.116-4.957c.19-5.467.43-10.933.557-16.4.028-1.206.365-1.532,1.558-1.476,1.126.053,1.552.275,1.514,1.534" transform="translate(-14203.525 -22201.912)" fill="#fdfefe"/>
    <path id="Tracé_3169" data-name="Tracé 3169" d="M592.145,754.574c3.835.175,5.659,1.848,6.114,5.227a12.233,12.233,0,0,1,.281,2.71c-.15,1.579.909,2.487,1.661,3.593.241.354.692.8.355,1.208-.371.445-.841-.005-1.209-.214a11.182,11.182,0,0,1-3.507-2.929c-1.9-2.5-3.827-4.972-7.024-5.981-.623-.2-1.314-.625-1.27-1.438s.795-1.072,1.429-1.279C590.156,755.087,591.367,754.79,592.145,754.574Z" transform="translate(-14156.321 -22461.377)" fill="#fefefe"/>
    <path id="Tracé_3170" data-name="Tracé 3170" d="M561.645,357.065c-.018-.967.275-1.3,1.264-1.213.909.085,1.6.036,1.536,1.361-.262,5.334-.4,10.674-.6,16.012-.024.66.109,1.487-1.042,1.17-.756-.209-1.851.276-1.765-1.319" transform="translate(-14138.922 -22199.646)" fill="#fdfdfd"/>
    <path id="Tracé_3171" data-name="Tracé 3171" d="M402.424,340.277c-.246.151-.291.189-.344.21-1.151.458-1.861-1.1-2.337-.929-.818.294-1.378,1.306-2.616.672.826-.9.779-2.536,2.638-2.569C401.749,337.626,401.449,339.456,402.424,340.277Z" transform="translate(-14031.332 -22187.715)" fill="#f8fbfa"/>
    <path id="Tracé_3172" data-name="Tracé 3172" d="M551.567,356.746a2.456,2.456,0,0,1-1.251,2.5c-.277.146-.628.353-.907-.029-.339-.465.113-.513.359-.715.4-.33.859-.69.032-1.12-.677-.352-.474-1.067-.267-1.5.3-.626,1.015-.293,1.532-.252C551.879,355.689,551.48,356.39,551.567,356.746Z" transform="translate(-14131.209 -22199.424)" fill="#f4f8f7"/>
    <path id="Tracé_3173" data-name="Tracé 3173" d="M498.031,641.832c-2.5-2.458-7.408-3.425-10.037-2.263a4.17,4.17,0,0,0-2.017,1.76c-.71,1.229-1.866,1.874-3.159,1.274-1.421-.659-.95-2.018-.573-3.156.781-2.359,2.646-3.575,5.65-3.441,4.081.181,8.033.877,11.278,3.7a9.849,9.849,0,0,0,4.183,2.213A1.438,1.438,0,0,1,504.6,643.5c-.089.964-.972.6-1.491.547a6.983,6.983,0,0,0-5.67,1.793,3.138,3.138,0,0,1-1.832.849,1.124,1.124,0,0,1-1.393-1.112c-.049-.467.553-1.28-.414-1.345a1.445,1.445,0,0,0-1.421,1.275c-.288,1.5-1.446,1.632-2.561,1.709-1.561.108-2.23-.905-1.706-2.4,1.354-3.867,3.252-4.881,7.2-3.827C496.066,641.187,496.8,641.447,498.031,641.832Z" transform="translate(-14086.949 -22383.543)" fill="#1b775e"/>
    <path id="Tracé_3174" data-name="Tracé 3174" d="M648.165,517.85c.7,3.183.2,5.956-.136,8.69-1.827,15.02-9.539,26.929-19.978,37.354-1.853,1.851-3.81,3.6-5.744,5.368a7.062,7.062,0,0,1-3.566,1.907c-.529.092-1.059.1-1.357-.429-.257-.458,0-.875.267-1.255a8.3,8.3,0,0,1,2.117-1.972c16.005-11.273,24.6-26.892,27.085-46.109A6.353,6.353,0,0,1,648.165,517.85Z" transform="translate(-14175.84 -22305.992)" fill="#1b775e"/>
    <path id="Tracé_3175" data-name="Tracé 3175" d="M689.5,375.061c.055-.694-.9-2.487,1.136-2.577,2.829-.125,3.44.327,3.739,2.7a10.191,10.191,0,0,1-.288,3.541c-.334,1.476-3.223,2.513-4.487,1.662-.35-.236-.248-.6-.251-.924" transform="translate(-14223.131 -22210.561)" fill="#1c775e"/>
    <path id="Tracé_3176" data-name="Tracé 3176" d="M393.513,371.285a17.587,17.587,0,0,1,1.05-6.525c.477-1.124,1.118-2.2,2.549-2.182,1.532.016,2.189,1.181,2.518,2.406a19.531,19.531,0,0,1-.442,11.585c-.388,1.134-1.077,2.241-2.518,2.212-1.529-.031-2.056-1.248-2.5-2.445A13.851,13.851,0,0,1,393.513,371.285Z" transform="translate(-14028.957 -22204.068)" fill="#1b775e"/>
    <path id="Tracé_3177" data-name="Tracé 3177" d="M632.282,374.927c-.2,2.073-.112,4.158-.982,6.077-.529,1.166-1.181,2.309-2.7,2.241-1.42-.064-2.063-1.145-2.428-2.315a15.747,15.747,0,0,1,.343-10.384,2.664,2.664,0,0,1,2.641-2.052c1.437.052,2.035,1.11,2.486,2.257A15.745,15.745,0,0,1,632.282,374.927Z" transform="translate(-14181.206 -22207.951)" fill="#1b775e"/>
    <path id="Tracé_3178" data-name="Tracé 3178" d="M519.239,366.849c0-.918.224-1.269,1.233-1.241,2.822.08,3.793.86,4.119,3.644a13.016,13.016,0,0,1-.529,5.715c-.5,1.476-3.508,2.437-4.82,1.629-.439-.271-.282-.7-.286-1.068" transform="translate(-14111.285 -22206.057)" fill="#1b775e"/>
  </g>
</svg>
