<svg xmlns="http://www.w3.org/2000/svg" width="45.737" height="30.02" viewBox="0 0 45.737 30.02">
  <g id="livraison" transform="translate(0 0)">
    <path id="Tracé_2283" data-name="Tracé 2283" d="M-5273.308,288.259a.942.942,0,0,0-.249-.172l-3.363-5.033a4.741,4.741,0,0,0-3.961-2.128h-4.445a4.755,4.755,0,0,0-4.744-4.516h-24.621a.95.95,0,0,0-.95.95v23.344a.95.95,0,0,0,.95.95h3.175a5.7,5.7,0,0,0,5.623,4.776,5.7,5.7,0,0,0,5.624-4.776h13.794a5.7,5.7,0,0,0,5.623,4.776,5.7,5.7,0,0,0,5.623-4.776h4.375a.951.951,0,0,0,.95-.95v-7.145a4.784,4.784,0,0,0-1.453-3.42Zm-5.194-4.153,2.6,3.886h-9.415v-5.165h4.439a2.845,2.845,0,0,1,2.379,1.279Zm-27.392,20.425a3.8,3.8,0,0,1-3.8-3.8,3.8,3.8,0,0,1,3.8-3.8,3.8,3.8,0,0,1,3.8,3.8,3.8,3.8,0,0,1-3.8,3.8Zm25.04,0a3.8,3.8,0,0,1-3.8-3.8,3.8,3.8,0,0,1,3.8-3.8,3.8,3.8,0,0,1,3.8,3.8,3.8,3.8,0,0,1-3.8,3.8Zm9.049-4.776h-3.435a5.7,5.7,0,0,0-5.614-4.722,5.7,5.7,0,0,0-5.613,4.722h-13.813a5.7,5.7,0,0,0-5.613-4.722,5.7,5.7,0,0,0-5.613,4.722h-2.236V278.312h23.672a2.852,2.852,0,0,1,2.85,2.85v7.782a.95.95,0,0,0,.951.95h11.918l1.676,1.616a2.86,2.86,0,0,1,.871,2.052Zm0,0" transform="translate(5315.642 -276.412)" fill="#eec500"/>
    <path id="Tracé_2284" data-name="Tracé 2284" d="M-5290.542,284.167l-7.64,7.684-4.167-4.21a.951.951,0,0,0-1.344-.007.951.951,0,0,0-.007,1.344l4.843,4.891a.95.95,0,0,0,.674.281h0a.951.951,0,0,0,.673-.28l8.314-8.363a.951.951,0,0,0,.249-.922.949.949,0,0,0-.677-.673.951.951,0,0,0-.92.256Zm0,0" transform="translate(5312.424 -278.472)" fill="#eec500"/>
  </g>
</svg>
