<svg xmlns="http://www.w3.org/2000/svg" width="112.688" height="71.282" viewBox="0 0 112.688 71.282">
  <g id="livraison-rapide" transform="translate(0 -94.062)">
    <g id="Groupe_6563" data-name="Groupe 6563" transform="translate(0 94.062)">
      <g id="Groupe_6562" data-name="Groupe 6562" transform="translate(0 0)">
        <path id="Tracé_2878" data-name="Tracé 2878" d="M104.8,124.281l-2.918-11.673a1.765,1.765,0,0,0,1.4-1.725V109a7.419,7.419,0,0,0-7.411-7.411H82.575V97.708a3.651,3.651,0,0,0-3.646-3.646H11.175a3.651,3.651,0,0,0-3.646,3.646V129.7a1.764,1.764,0,0,0,3.529,0V97.708a.118.118,0,0,1,.118-.118H78.928a.117.117,0,0,1,.118.118v32a1.764,1.764,0,0,0,3.529,0v-2H103.4a5.774,5.774,0,0,1,5.483,4h-5.486a1.765,1.765,0,0,0-1.764,1.764v3.764a5.535,5.535,0,0,0,5.528,5.528h2v7.763h-4.614a11.171,11.171,0,0,0-21.121,0h-.85V137.231a1.764,1.764,0,0,0-3.529,0v13.292H42.438a11.171,11.171,0,0,0-21.121,0H11.175a.118.118,0,0,1-.118-.118v-3.882H18.7a1.764,1.764,0,0,0,0-3.529H1.764a1.764,1.764,0,0,0,0,3.529H7.528v3.882a3.651,3.651,0,0,0,3.646,3.646h9.531c0,.039,0,.078,0,.118a11.175,11.175,0,1,0,22.349,0c0-.04,0-.078,0-.118H82.813c0,.039,0,.078,0,.118a11.175,11.175,0,1,0,22.349,0c0-.04,0-.078,0-.118h5.767a1.765,1.765,0,0,0,1.764-1.764v-18.82A9.307,9.307,0,0,0,104.8,124.281ZM82.575,105.119H95.867A3.886,3.886,0,0,1,99.748,109v.118H82.575Zm0,19.056V112.647H98.253l2.882,11.528Zm-50.7,37.641a7.646,7.646,0,1,1,7.646-7.646A7.654,7.654,0,0,1,31.877,161.816Zm62.107,0a7.646,7.646,0,1,1,7.646-7.646A7.654,7.654,0,0,1,93.985,161.816Zm15.174-22.585h-2a2,2,0,0,1-2-2v-2h4v4Z" transform="translate(0 -94.062)" fill="#747f92"/>
      </g>
    </g>
    <g id="Groupe_6565" data-name="Groupe 6565" transform="translate(28.231 150.523)">
      <g id="Groupe_6564" data-name="Groupe 6564">
        <path id="Tracé_2879" data-name="Tracé 2879" d="M131.913,350.6a3.646,3.646,0,1,0,3.646,3.647A3.651,3.651,0,0,0,131.913,350.6Z" transform="translate(-128.267 -350.597)" fill="#747f92"/>
      </g>
    </g>
    <g id="Groupe_6567" data-name="Groupe 6567" transform="translate(90.338 150.523)">
      <g id="Groupe_6566" data-name="Groupe 6566">
        <path id="Tracé_2880" data-name="Tracé 2880" d="M414.1,350.6a3.646,3.646,0,1,0,3.646,3.647A3.651,3.651,0,0,0,414.1,350.6Z" transform="translate(-410.455 -350.597)" fill="#747f92"/>
      </g>
    </g>
    <g id="Groupe_6569" data-name="Groupe 6569" transform="translate(45.169 142.995)">
      <g id="Groupe_6568" data-name="Groupe 6568" transform="translate(0 0)">
        <path id="Tracé_2881" data-name="Tracé 2881" d="M233.34,316.393H206.991a1.764,1.764,0,0,0,0,3.529H233.34a1.764,1.764,0,1,0,0-3.529Z" transform="translate(-205.227 -316.393)" fill="#747f92"/>
      </g>
    </g>
    <g id="Groupe_6571" data-name="Groupe 6571" transform="translate(3.764 135.467)">
      <g id="Groupe_6570" data-name="Groupe 6570" transform="translate(0 0)">
        <path id="Tracé_2882" data-name="Tracé 2882" d="M41.451,282.188H18.866a1.764,1.764,0,1,0,0,3.529H41.451a1.764,1.764,0,0,0,0-3.529Z" transform="translate(-17.102 -282.188)" fill="#747f92"/>
      </g>
    </g>
    <g id="Groupe_6573" data-name="Groupe 6573" transform="translate(31.995 111)">
      <g id="Groupe_6572" data-name="Groupe 6572" transform="translate(0 0)">
        <path id="Tracé_2883" data-name="Tracé 2883" d="M174.73,171.539a1.764,1.764,0,0,0-2.5,0L156.544,187.23l-8.163-8.163a1.764,1.764,0,1,0-2.5,2.5l9.41,9.41a1.764,1.764,0,0,0,2.495,0l16.938-16.938A1.765,1.765,0,0,0,174.73,171.539Z" transform="translate(-145.37 -171.023)" fill="#747f92"/>
      </g>
    </g>
  </g>
</svg>
