<svg xmlns="http://www.w3.org/2000/svg" width="417" height="415.615" viewBox="0 0 417 415.615">
  <g id="login" transform="translate(0 -0.85)">
    <g id="Groupe_6936" data-name="Groupe 6936" transform="translate(0 0.85)">
      <g id="Groupe_6935" data-name="Groupe 6935">
        <path id="Tracé_3094" data-name="Tracé 3094" d="M255.15,381.831H63.787c-11.737,0-21.262-7.758-21.262-17.317V52.8c0-9.559,9.526-17.317,21.262-17.317H255.15c11.758,0,21.262-7.741,21.262-17.317S266.908.85,255.15.85H63.787C28.619.85,0,24.16,0,52.8V364.513c0,28.643,28.619,51.951,63.787,51.951H255.15c11.758,0,21.262-7.741,21.262-17.317S266.908,381.831,255.15,381.831Z" transform="translate(0 -0.85)" fill="#747f92"/>
      </g>
    </g>
    <path id="Tracé_3095" data-name="Tracé 3095" d="M505.664,198.334l-129.276-87c-8.335-5.626-21.815-5.553-30.065.145s-8.165,14.876.213,20.5l92.385,62.172H191.362c-11.758,0-21.262,6.481-21.262,14.5s9.5,14.5,21.262,14.5H438.921l-92.385,62.172c-8.377,5.626-8.441,14.8-.213,20.5a28.722,28.722,0,0,0,30.065.145l129.276-87c4.04-2.726,6.336-6.438,6.336-10.324S509.725,201.075,505.664,198.334Z" transform="translate(-95)" fill="#747f92"/>
  </g>
</svg>
