<svg xmlns="http://www.w3.org/2000/svg" width="405.94" height="405.191" viewBox="0 0 405.94 405.191">
  <g id="logout" transform="translate(0 -0.85)">
    <g id="Groupe_7040" data-name="Groupe 7040">
      <g id="Groupe_7039" data-name="Groupe 7039" transform="translate(0 0.85)">
        <path id="Tracé_3587" data-name="Tracé 3587" d="M214.281,372.276H53.57c-9.857,0-17.856-7.564-17.856-16.883V51.5c0-9.319,8-16.883,17.856-16.883H214.281c9.875,0,17.856-7.546,17.856-16.883S224.155.85,214.281.85H53.57C24.035.85,0,23.575,0,51.5V355.392c0,27.924,24.035,50.649,53.57,50.649H214.281c9.875,0,17.856-7.546,17.856-16.883S224.155,372.276,214.281,372.276Z" transform="translate(0 -0.85)"/>
      </g>
    </g>
    <g id="Groupe_7042" data-name="Groupe 7042">
      <g id="Groupe_7041" data-name="Groupe 7041" transform="translate(170.1 107.165)">
        <path id="Tracé_3588" data-name="Tracé 3588" d="M401.57,199.387l-89.174-88A14.665,14.665,0,0,0,291.8,132.273l63.727,62.89H184.766a14.667,14.667,0,0,0,0,29.333H355.531L291.8,287.387A14.665,14.665,0,1,0,312.4,308.272l89.174-88a14.66,14.66,0,0,0,0-20.884Z" transform="translate(-170.1 -107.165)"/>
      </g>
    </g>
  </g>
</svg>
