<svg xmlns="http://www.w3.org/2000/svg" width="14.753" height="14.752" viewBox="0 0 14.753 14.752">
  <g id="panier_" data-name="panier " transform="translate(-0.002 0)">
    <g id="panier" transform="translate(0)">
      <path id="cart_icon" data-name="cart icon" d="M8169.426,846.8a1.475,1.475,0,1,0,1.476,1.475,1.474,1.474,0,0,0-1.476-1.475ZM8165,835v1.475h1.476l2.656,5.6-1,1.807a1.425,1.425,0,0,0-.185.708,1.481,1.481,0,0,0,1.476,1.475h8.852v-1.475h-8.542a.182.182,0,0,1-.185-.184l.022-.088.664-1.2h5.5a1.473,1.473,0,0,0,1.291-.759l2.64-4.787a.715.715,0,0,0,.089-.354.74.74,0,0,0-.738-.738h-10.908l-.694-1.475Zm11.8,11.8a1.475,1.475,0,1,0,1.476,1.475,1.474,1.474,0,0,0-1.476-1.475Z" transform="translate(-8164.999 -835)" fill="#b3b3b3"/>
    </g>
  </g>
</svg>
