<svg xmlns="http://www.w3.org/2000/svg" width="84.738" height="84.738" viewBox="0 0 84.738 84.738">
  <g id="prix" transform="translate(0.001 0)">
    <path id="Tracé_2891" data-name="Tracé 2891" d="M163.553,192.674a1.655,1.655,0,1,0-2.34,0A1.653,1.653,0,0,0,163.553,192.674Zm0,0" transform="translate(-134.127 -158.428)" fill="#747f92"/>
    <path id="Tracé_2892" data-name="Tracé 2892" d="M234.054,178.324a4.965,4.965,0,1,0-7.022,0A4.97,4.97,0,0,0,234.054,178.324Zm-4.682-4.681a1.655,1.655,0,1,1,0,2.34A1.656,1.656,0,0,1,229.372,173.643Zm0,0" transform="translate(-188.243 -141.737)" fill="#747f92"/>
    <path id="Tracé_2893" data-name="Tracé 2893" d="M227.032,284.43a4.966,4.966,0,1,0,7.022,0A4.963,4.963,0,0,0,227.032,284.43Zm4.682,4.683a1.656,1.656,0,1,1,0-2.342A1.656,1.656,0,0,1,231.714,289.113Zm0,0" transform="translate(-188.243 -236.142)" fill="#747f92"/>
    <path id="Tracé_2894" data-name="Tracé 2894" d="M174.9,238.931a1.654,1.654,0,0,0,1.947,1.3l23.405-4.682a1.655,1.655,0,1,0-.649-3.245L176.2,236.984A1.654,1.654,0,0,0,174.9,238.931Zm0,0" transform="translate(-145.928 -193.828)" fill="#747f92"/>
    <path id="Tracé_2895" data-name="Tracé 2895" d="M96.515,56.574a1.654,1.654,0,0,0-1.17.484L77.969,74.434a1.655,1.655,0,0,0,2.34,2.341L96.515,60.569l21.064,21.065L80.424,118.789,59.359,97.725,70.948,86.137a1.655,1.655,0,0,0-2.341-2.34L55.849,96.555a1.654,1.654,0,0,0,0,2.34L79.254,122.3a1.654,1.654,0,0,0,2.34,0l39.5-39.5a1.655,1.655,0,0,0,0-2.341L97.685,57.058a1.654,1.654,0,0,0-1.17-.484Zm0,0" transform="translate(-46.201 -47.21)" fill="#747f92"/>
    <path id="Tracé_2896" data-name="Tracé 2896" d="M81.911.485l-7.1,7.1A11.7,11.7,0,0,0,60.83,7.459L55.011,1.472l-.017-.017a4.962,4.962,0,0,0-7.024,0L1.455,48.174a4.964,4.964,0,0,0,0,7.023l6.565,6.564A11.759,11.759,0,0,0,22.976,76.719l6.565,6.564a4.963,4.963,0,0,0,7.02,0L83.282,36.764a4.961,4.961,0,0,0,0-7.021l-.017-.017-5.987-5.817a11.672,11.672,0,0,0-.13-13.979l7.1-7.1A1.655,1.655,0,0,0,81.911.486ZM73.838,22.839a1.655,1.655,0,0,0,.017,2.357l7.093,6.894a1.652,1.652,0,0,1,0,2.33L34.222,80.941a1.657,1.657,0,0,1-2.342,0L24.54,73.6a1.655,1.655,0,0,0-1.873-.328,8.442,8.442,0,0,1-11.2-11.2,1.655,1.655,0,0,0-.328-1.874L3.8,52.856a1.659,1.659,0,0,1,0-2.344L50.314,3.8a1.654,1.654,0,0,1,2.333-.007l6.893,7.093A1.653,1.653,0,0,0,61.9,10.9a8.332,8.332,0,0,1,10.537-.938l-2.428,2.428a4.961,4.961,0,1,0,2.343,2.338L74.777,12.3a8.319,8.319,0,0,1-.939,10.539Zm-4.8-7.141a1.656,1.656,0,1,1-2.342,0A1.655,1.655,0,0,1,69.038,15.7Zm0,0" transform="translate(0)" fill="#747f92"/>
  </g>
</svg>
