<svg xmlns="http://www.w3.org/2000/svg" width="76.872" height="76.873" viewBox="0 0 76.872 76.873">
  <g id="satisfaction" transform="translate(0 0)">
    <path id="Tracé_3093" data-name="Tracé 3093" d="M65.629,11.248a38.454,38.454,0,1,0,0,54.379A38.5,38.5,0,0,0,65.629,11.248Zm-4.2,50.186a32.523,32.523,0,1,1,0-45.994A32.559,32.559,0,0,1,61.433,61.433Zm-37.34-33.4a4.494,4.494,0,1,1,4.495,4.5A4.5,4.5,0,0,1,24.093,28.029Zm20.379,0a4.495,4.495,0,1,1,4.5,4.5A4.5,4.5,0,0,1,44.472,28.029ZM55.1,46.437A17.944,17.944,0,0,1,38.48,57.04,17.82,17.82,0,0,1,21.763,46.383a2.174,2.174,0,1,1,4.016-1.667,13.489,13.489,0,0,0,12.7,7.976,13.6,13.6,0,0,0,12.626-7.981A2.174,2.174,0,0,1,55.1,46.437Z" transform="translate(0 0)" fill="#fff"/>
  </g>
</svg>
