<svg xmlns="http://www.w3.org/2000/svg" width="33.657" height="29.582" viewBox="0 0 33.657 29.582">
  <g id="shopping" transform="translate(0 0)">
    <path id="Tracé_3056" data-name="Tracé 3056" d="M10.844,19.721H28.727a.986.986,0,0,0,.948-.715L33.619,5.2a.986.986,0,0,0-.948-1.257H8.57L7.865.772A.986.986,0,0,0,6.9,0H.986a.986.986,0,1,0,0,1.972H6.111l3.56,16.021a2.958,2.958,0,0,0,1.175,5.672h17.88a.986.986,0,1,0,0-1.972H10.846a.986.986,0,0,1,0-1.972ZM31.364,5.916,27.983,17.749H11.637L9.008,5.916Zm0,0" fill="#eec400"/>
    <path id="Tracé_3057" data-name="Tracé 3057" d="M150,362.958A2.958,2.958,0,1,0,152.958,360,2.962,2.962,0,0,0,150,362.958Zm2.958-.986a.986.986,0,1,1-.986.986A.987.987,0,0,1,152.958,361.972Zm0,0" transform="translate(-140.14 -336.335)" fill="#eec400"/>
    <path id="Tracé_3058" data-name="Tracé 3058" d="M362,362.958A2.958,2.958,0,1,0,364.958,360,2.962,2.962,0,0,0,362,362.958Zm2.958-.986a.986.986,0,1,1-.986.986A.987.987,0,0,1,364.958,361.972Zm0,0" transform="translate(-338.203 -336.335)" fill="#eec400"/>
  </g>
</svg>
