<svg id="shopping1" xmlns="http://www.w3.org/2000/svg" width="20.908" height="20.908" viewBox="0 0 20.908 20.908">
  <path id="Tracé_232" data-name="Tracé 232" d="M0,0H20.908V20.908H0Z" fill="none"/>
  <path id="Tracé_233" data-name="Tracé 233" d="M13.676,11.583a1.734,1.734,0,0,0,1.525-.9l3.119-5.654a.868.868,0,0,0-.758-1.289H4.668L3.849,2H1V3.742H2.742l3.136,6.612L4.7,12.48a1.745,1.745,0,0,0,1.525,2.587H16.681V13.325H6.227l.958-1.742ZM5.5,5.485H16.08l-2.4,4.356H7.56Zm.732,10.454a1.742,1.742,0,1,0,1.742,1.742A1.74,1.74,0,0,0,6.227,15.939Zm8.712,0a1.742,1.742,0,1,0,1.742,1.742A1.74,1.74,0,0,0,14.939,15.939Z" transform="translate(-0.129 -0.258)" fill="#fff"/>
</svg>
