<svg xmlns="http://www.w3.org/2000/svg" width="24.821" height="24.821" viewBox="0 0 24.821 24.821">
  <g id="success" transform="translate(0.5 0.5)">
    <path id="Tracé_2617" data-name="Tracé 2617" d="M11.91,0a11.91,11.91,0,1,0,11.91,11.91A11.924,11.924,0,0,0,11.91,0Zm0,22.9A10.994,10.994,0,1,1,22.9,11.91,11.007,11.007,0,0,1,11.91,22.9Z" fill="#b2b2b2" stroke="#b2b2b2" stroke-width="1"/>
    <path id="Tracé_2618" data-name="Tracé 2618" d="M24.026,15.154l-7.04,7.92-4.241-3.393a.458.458,0,0,0-.572.716l4.581,3.665a.459.459,0,0,0,.629-.054l7.329-8.246a.458.458,0,0,0-.685-.608Z" transform="translate(-6.503 -8.128)" fill="#b2b2b2" stroke="#b2b2b2" stroke-width="1"/>
  </g>
</svg>
