<svg xmlns="http://www.w3.org/2000/svg" xmlns:xlink="http://www.w3.org/1999/xlink" width="22.667" height="26.667" viewBox="0 0 22.667 26.667">
  <defs>
    <clipPath id="clip-path">
      <rect width="22.667" height="26.667" fill="none"/>
    </clipPath>
  </defs>
  <g id="supprimer" transform="translate(0 0)" clip-path="url(#clip-path)">
    <g id="Rectangle_2" data-name="Rectangle 2" transform="translate(0 4)" fill="#d8d8d8" stroke="#979797" stroke-miterlimit="10" stroke-width="1">
      <rect width="22.667" height="2.667" rx="1" stroke="none"/>
      <rect x="0.5" y="0.5" width="21.667" height="1.667" rx="0.5" fill="none"/>
    </g>
    <g id="Rectangle_2_Copy_2" data-name="Rectangle 2 Copy 2" transform="translate(5.333)" fill="#d8d8d8" stroke="#979797" stroke-miterlimit="10" stroke-width="1">
      <path d="M1,0H11a1,1,0,0,1,1,1V2.667a0,0,0,0,1,0,0H0a0,0,0,0,1,0,0V1A1,1,0,0,1,1,0Z" stroke="none"/>
      <rect x="0.5" y="0.5" width="11" height="1.667" rx="0.5" fill="none"/>
    </g>
    <g id="Rectangle" transform="translate(2.667 4)" fill="none" stroke="#979797" stroke-miterlimit="10" stroke-width="2">
      <rect width="17.333" height="22.667" rx="1" stroke="none"/>
      <rect x="1" y="1" width="15.333" height="20.667" fill="none"/>
    </g>
    <rect id="Rectangle_39" data-name="Rectangle 39" width="14.667" height="4" transform="translate(4 20)" fill="#979797"/>
  </g>
</svg>
