<svg xmlns="http://www.w3.org/2000/svg" width="1919.833" height="1599.333" viewBox="0 0 1919.833 1599.333">
  <g id="telechargement33" transform="translate(25 -89.5)">
    <text id="Users" transform="translate(227.667 249.667)" fill="#eec400" font-size="19" font-family="SegoeUI-Bold, Segoe UI" font-weight="700"><tspan x="0" y="0">1 . Télécharger votre devis</tspan></text>
    <text id="Users-2" data-name="Users" transform="translate(839.667 249.667)" fill="#eec400" font-size="19" font-family="SegoeUI-Bold, Segoe UI" font-weight="700"><tspan x="0" y="0">2 . Signer et Uploader votre bon de commande</tspan></text>
    <text id="Users-3" data-name="Users" transform="translate(1486.667 249.667)" fill="#eec400" font-size="19" font-family="SegoeUI-Bold, Segoe UI" font-weight="700"><tspan x="0" y="0">3 . Passer au paiement</tspan></text>
    <text id="Home_Admin_User" data-name="Home / Admin / User" transform="translate(191 177.5)" fill="rgba(113,113,113,0.65)" font-size="21" font-family="SegoeUI, Segoe UI"><tspan x="0" y="0" xml:space="preserve">Home  / Dashboard  /  </tspan><tspan y="0">Devis Managements / </tspan><tspan y="0" fill="#717171">Paiement</tspan></text>
    <path id="Line_19" data-name="Line 19" d="M0,1H1812" transform="translate(82.333 313)" fill="none" stroke="#e6e8f1" stroke-linecap="square" stroke-miterlimit="10" stroke-width="1"/>
    <rect id="Rectangle_25" data-name="Rectangle 25" width="1490.333" height="5.333" transform="translate(191 272.667)" fill="#a3a3a3" opacity="0.34"/>
    <text id="Dashboard_Users" data-name="Dashboard Users" transform="translate(190 375.499)" fill="#747f92" font-size="23" font-family="SegoeUI-Bold, Segoe UI" font-weight="700"><tspan x="0" y="0">3 . Passer au paiement</tspan></text>
    <g id="Button" transform="translate(791 544.501)">
      <rect id="Rectangle_19" data-name="Rectangle 19" width="186.667" height="56" rx="5" fill="#eec400"/>
      <text id="Add_User" data-name="Add User" transform="translate(93.667 33.667)" fill="#fff" font-size="17" font-family="SegoeUI, Segoe UI"><tspan x="-27.471" y="0">Suivant</tspan></text>
    </g>
    <g id="download_2_" data-name="download (2)" transform="translate(191 209.432)">
      <g id="Groupe_6860" data-name="Groupe 6860" transform="translate(0 17.25)">
        <path id="Tracé_3073" data-name="Tracé 3073" d="M25.012,228.259a.735.735,0,0,0-.738.738v6.711a3.311,3.311,0,0,1-3.306,3.306H4.782a3.311,3.311,0,0,1-3.306-3.306v-6.82a.738.738,0,1,0-1.475,0v6.82a4.787,4.787,0,0,0,4.782,4.782H20.968a4.787,4.787,0,0,0,4.782-4.782V229A.738.738,0,0,0,25.012,228.259Z" transform="translate(0 -216.625)" fill="#eec400" stroke="#eec400" stroke-width="1"/>
        <path id="Tracé_3074" data-name="Tracé 3074" d="M141.136,35.256a.743.743,0,0,0,.519.219.72.72,0,0,0,.519-.219l4.689-4.689a.738.738,0,0,0-1.044-1.044l-3.426,3.432V17.988a.738.738,0,0,0-1.475,0V32.955l-3.432-3.432a.738.738,0,1,0-1.044,1.044Z" transform="translate(-128.781 -17.25)" fill="#eec400" stroke="#eec400" stroke-width="1"/>
      </g>
    </g>
    <g id="download_2_2" data-name="download (2)" transform="translate(803 209.432)">
      <g id="Groupe_6860-2" data-name="Groupe 6860" transform="translate(0 17.25)">
        <path id="Tracé_3073-2" data-name="Tracé 3073" d="M25.012,228.259a.735.735,0,0,0-.738.738v6.711a3.311,3.311,0,0,1-3.306,3.306H4.782a3.311,3.311,0,0,1-3.306-3.306v-6.82a.738.738,0,1,0-1.475,0v6.82a4.787,4.787,0,0,0,4.782,4.782H20.968a4.787,4.787,0,0,0,4.782-4.782V229A.738.738,0,0,0,25.012,228.259Z" transform="translate(0 -216.625)" fill="#eec400" stroke="#eec400" stroke-width="1"/>
        <path id="Tracé_3074-2" data-name="Tracé 3074" d="M141.136,35.256a.743.743,0,0,0,.519.219.72.72,0,0,0,.519-.219l4.689-4.689a.738.738,0,0,0-1.044-1.044l-3.426,3.432V17.988a.738.738,0,0,0-1.475,0V32.955l-3.432-3.432a.738.738,0,1,0-1.044,1.044Z" transform="translate(154.525 35.474) rotate(-180)" fill="#eec400" stroke="#eec400" stroke-width="1"/>
      </g>
    </g>
    <g id="success" transform="translate(1451 228.68)">
      <path id="Tracé_2617" data-name="Tracé 2617" d="M11.91,0a11.91,11.91,0,1,0,11.91,11.91A11.924,11.924,0,0,0,11.91,0Zm0,22.9A10.994,10.994,0,1,1,22.9,11.91,11.007,11.007,0,0,1,11.91,22.9Z" fill="#eec400" stroke="#eec400" stroke-width="1"/>
      <path id="Tracé_2618" data-name="Tracé 2618" d="M24.026,15.154l-7.04,7.92-4.241-3.393a.458.458,0,0,0-.572.716l4.581,3.665a.459.459,0,0,0,.629-.054l7.329-8.246a.458.458,0,0,0-.685-.608Z" transform="translate(-6.503 -8.128)" fill="#eec400" stroke="#eec400" stroke-width="1"/>
    </g>
    <rect id="Rectangle_25-2" data-name="Rectangle 25" width="1491.333" height="5.333" transform="translate(190 272.666)" fill="#eec400"/>
    <g id="Nav" transform="translate(-25 90)">
      <rect id="Rectangle_32" data-name="Rectangle 32" width="106.667" height="1598.333" transform="translate(0 0.5)" fill="#f8f8f8"/>
      <path id="Line_2" data-name="Line 2" d="M1,0V1259.016" transform="translate(105.667)" fill="none" stroke="#e6e8f1" stroke-linecap="square" stroke-miterlimit="10" stroke-width="1"/>
      <g id="Groupe_6892" data-name="Groupe 6892" transform="translate(0 -46.166)">
        <g id="Home-Icon" transform="translate(36 415.667)">
          <path id="Shape" d="M12.8,27.429h6.4v0h8V14.521H32L16,0,0,14.521H4.8V27.429Z" fill="none" stroke="#767676" stroke-miterlimit="10" stroke-width="2"/>
        </g>
        <g id="Save_icon" data-name="Save icon" transform="translate(30.667 654.667)">
          <rect id="active" width="5.333" height="33.333" transform="translate(70.667)" fill="#eec400"/>
          <g id="text-document" transform="translate(-52.048 0.144)">
            <path id="Tracé_3082" data-name="Tracé 3082" d="M79.556,0h-16.2a1.977,1.977,0,0,0-1.974,1.974V30.216a1.976,1.976,0,0,0,1.974,1.974H83.2a1.976,1.976,0,0,0,1.974-1.974V6.1Zm.466,2.954L82.484,5.63H80.022Zm3.494,27.262a.318.318,0,0,1-.317.317H63.355a.317.317,0,0,1-.316-.317V1.974a.316.316,0,0,1,.316-.316H78.363v4.8a.829.829,0,0,0,.83.828h4.323ZM65.963,8.817H80.04a.621.621,0,1,1,0,1.242H65.963a.621.621,0,0,1,0-1.242Zm14.7,4.794a.621.621,0,0,1-.621.621H65.963a.621.621,0,0,1,0-1.242H80.04A.621.621,0,0,1,80.661,13.611Zm0,4.037a.621.621,0,0,1-.621.621H65.963a.621.621,0,0,1,0-1.242H80.04A.621.621,0,0,1,80.661,17.648Zm0,4.106a.621.621,0,0,1-.621.621H65.963a.621.621,0,0,1,0-1.242H80.04A.621.621,0,0,1,80.661,21.753Z" transform="translate(0)" fill="#eec400"/>
          </g>
        </g>
        <g id="avatar_2_" data-name="avatar (2)" transform="translate(4.927 481.594)">
          <g id="Groupe_6819" data-name="Groupe 6819" transform="translate(36.073)">
            <path id="Tracé_3054" data-name="Tracé 3054" d="M143.425,16.085h.2a5.7,5.7,0,0,0,4.358-1.885c2.38-2.683,1.984-7.282,1.941-7.721-.155-3.295-1.712-4.871-3-5.607A6.873,6.873,0,0,0,143.6,0h-.105a6.884,6.884,0,0,0-3.326.847c-1.3.736-2.881,2.312-3.035,5.632-.043.439-.439,5.038,1.941,7.721A5.681,5.681,0,0,0,143.425,16.085Zm-4.642-9.452c0-.019.006-.037.006-.049.2-4.432,3.35-4.908,4.7-4.908h.074c1.669.037,4.506.717,4.7,4.908a.121.121,0,0,0,.006.049c.006.043.439,4.247-1.527,6.46a4.052,4.052,0,0,1-3.184,1.323h-.062a4.038,4.038,0,0,1-3.177-1.323C138.356,10.892,138.777,6.67,138.783,6.633Z" transform="translate(-130.838)" fill="#767676" stroke="#707070" stroke-width="0.25"/>
            <path id="Tracé_3055" data-name="Tracé 3055" d="M61.463,266.931v-.019c0-.049-.006-.1-.006-.155-.037-1.224-.117-4.086-2.8-5l-.062-.019a17.835,17.835,0,0,1-5.131-2.337.834.834,0,0,0-.958,1.366,19.255,19.255,0,0,0,5.644,2.578c1.44.513,1.6,2.052,1.644,3.462a1.241,1.241,0,0,0,.006.155,11.221,11.221,0,0,1-.13,1.91,22.751,22.751,0,0,1-10.9,2.534,22.881,22.881,0,0,1-10.9-2.541,10.623,10.623,0,0,1-.13-1.91c0-.049.006-.1.006-.155.043-1.409.2-2.949,1.644-3.462a19.431,19.431,0,0,0,5.644-2.578.834.834,0,0,0-.958-1.366,17.64,17.64,0,0,1-5.131,2.337c-.025.006-.043.012-.062.019-2.683.921-2.763,3.783-2.8,5a1.241,1.241,0,0,1-.006.155v.019a9.479,9.479,0,0,0,.315,2.8.793.793,0,0,0,.321.389c.185.124,4.63,2.955,12.067,2.955s11.881-2.837,12.067-2.955a.827.827,0,0,0,.321-.389A9.946,9.946,0,0,0,61.463,266.931Z" transform="translate(-36.073 -243.218)" fill="#767676" stroke="#707070" stroke-width="0.25"/>
          </g>
        </g>
        <g id="shopping-cart_3_" data-name="shopping-cart (3)" transform="translate(35 572.629)">
          <path id="Tracé_3056" data-name="Tracé 3056" d="M10.844,19.721H28.727a.986.986,0,0,0,.948-.715L33.619,5.2a.986.986,0,0,0-.948-1.257H8.57L7.865.772A.986.986,0,0,0,6.9,0H.986a.986.986,0,1,0,0,1.972H6.111l3.56,16.021a2.958,2.958,0,0,0,1.175,5.672h17.88a.986.986,0,1,0,0-1.972H10.846a.986.986,0,0,1,0-1.972ZM31.364,5.916,27.983,17.749H11.637L9.008,5.916Zm0,0" fill="#767676"/>
          <path id="Tracé_3057" data-name="Tracé 3057" d="M150,362.958A2.958,2.958,0,1,0,152.958,360,2.962,2.962,0,0,0,150,362.958Zm2.958-.986a.986.986,0,1,1-.986.986A.987.987,0,0,1,152.958,361.972Zm0,0" transform="translate(-140.14 -336.335)" fill="#767676"/>
          <path id="Tracé_3058" data-name="Tracé 3058" d="M362,362.958A2.958,2.958,0,1,0,364.958,360,2.962,2.962,0,0,0,362,362.958Zm2.958-.986a.986.986,0,1,1-.986.986A.987.987,0,0,1,364.958,361.972Zm0,0" transform="translate(-338.203 -336.335)" fill="#767676"/>
        </g>
        <g id="support" transform="translate(38.997 748.164)">
          <rect id="Rectangle_319" data-name="Rectangle 319" width="29.704" height="29.704" fill="none"/>
          <path id="Tracé_181" data-name="Tracé 181" d="M42.376,19.188a1.188,1.188,0,1,0-2.376,0V28.1a1.188,1.188,0,1,0,2.376,0Z" transform="translate(-16.237 -7.307)" fill="none" stroke="#767676" stroke-miterlimit="10" stroke-width="1.75"/>
          <path id="Tracé_182" data-name="Tracé 182" d="M25.159,45.376a1.188,1.188,0,1,0,0-2.376h-2.97a1.188,1.188,0,0,0,0,2.376Z" transform="translate(-8.524 -17.454)" fill="none" stroke="#767676" stroke-miterlimit="10" stroke-width="1.75"/>
          <path id="Tracé_183" data-name="Tracé 183" d="M8,12.1a10.1,10.1,0,1,1,20.2,0" transform="translate(-3.247 -0.812)" fill="none" stroke="#767676" stroke-miterlimit="10" stroke-width="1.75"/>
          <path id="Tracé_184" data-name="Tracé 184" d="M44,20c1.641,0,2.97,1.994,2.97,4.456s-1.33,4.456-2.97,4.456" transform="translate(-17.86 -8.118)" fill="none" stroke="#767676" stroke-miterlimit="10" stroke-width="1.75"/>
          <path id="Tracé_185" data-name="Tracé 185" d="M6,19.188a1.188,1.188,0,0,1,2.376,0V28.1A1.188,1.188,0,0,1,6,28.1Z" transform="translate(-2.436 -7.307)" fill="none" stroke="#767676" stroke-miterlimit="10" stroke-width="1.75"/>
          <path id="Tracé_186" data-name="Tracé 186" d="M3.97,20C2.33,20,1,21.994,1,24.456s1.33,4.456,2.97,4.456" transform="translate(-0.406 -8.118)" fill="none" stroke="#767676" stroke-miterlimit="10" stroke-width="1.75"/>
          <path id="Tracé_187" data-name="Tracé 187" d="M37.129,37a4.372,4.372,0,0,1-4.753,4.753H30" transform="translate(-12.178 -15.019)" fill="none" stroke="#767676" stroke-miterlimit="10" stroke-width="1.75"/>
        </g>
        <g id="Layout-Settings" transform="translate(31.007 821.283)">
          <g id="discount" transform="translate(7.666 5.216)">
            <g id="Groupe_6881" data-name="Groupe 6881" transform="translate(0 0)">
              <g id="Groupe_6880" data-name="Groupe 6880" transform="translate(0 0)">
                <path id="Tracé_3076" data-name="Tracé 3076" d="M35.931,14.361a.821.821,0,0,1,0-.725L36.975,11.5a2.431,2.431,0,0,0-1.049-3.228l-2.1-1.115A.821.821,0,0,1,33.4,6.57l-.411-2.342a2.431,2.431,0,0,0-2.746-1.995l-2.354.333a.821.821,0,0,1-.69-.224L25.489.689a2.431,2.431,0,0,0-3.394,0L20.386,2.342a.821.821,0,0,1-.69.224l-2.354-.333A2.43,2.43,0,0,0,14.6,4.228L14.186,6.57a.821.821,0,0,1-.426.587l-2.1,1.115A2.431,2.431,0,0,0,10.61,11.5l1.044,2.136a.821.821,0,0,1,0,.725L10.61,16.5a2.431,2.431,0,0,0,1.049,3.228l2.1,1.115a.821.821,0,0,1,.426.587l.411,2.342a2.429,2.429,0,0,0,2.4,2.02,2.5,2.5,0,0,0,.35-.025L19.7,25.43a.82.82,0,0,1,.69.224L22.1,27.308a2.431,2.431,0,0,0,3.394,0L27.2,25.654a.821.821,0,0,1,.69-.224l2.354.333a2.43,2.43,0,0,0,2.746-1.995l.411-2.342a.821.821,0,0,1,.426-.587l2.1-1.115A2.431,2.431,0,0,0,36.975,16.5ZM35.169,18.3l-2.1,1.115a2.425,2.425,0,0,0-1.26,1.734L31.4,23.489a.822.822,0,0,1-.929.675l-2.354-.333a2.425,2.425,0,0,0-2.039.662l-1.709,1.653a.822.822,0,0,1-1.148,0l-1.709-1.653a2.423,2.423,0,0,0-1.691-.687,2.479,2.479,0,0,0-.348.025l-2.354.333a.823.823,0,0,1-.929-.675l-.411-2.342a2.425,2.425,0,0,0-1.26-1.734l-2.1-1.115a.822.822,0,0,1-.355-1.092l1.044-2.136a2.425,2.425,0,0,0,0-2.144L12.061,10.79A.822.822,0,0,1,12.416,9.7l2.1-1.115a2.425,2.425,0,0,0,1.26-1.734l.411-2.342a.822.822,0,0,1,.929-.675l2.354.333A2.425,2.425,0,0,0,21.509,3.5l1.709-1.653a.822.822,0,0,1,1.148,0L26.075,3.5a2.425,2.425,0,0,0,2.039.662l2.354-.333a.822.822,0,0,1,.929.675l.411,2.342a2.425,2.425,0,0,0,1.26,1.734l2.1,1.115a.822.822,0,0,1,.355,1.092L34.48,12.926a2.425,2.425,0,0,0,0,2.144l1.044,2.136A.822.822,0,0,1,35.169,18.3Z" transform="translate(-10.359 0.002)" fill="#767676"/>
              </g>
            </g>
            <g id="Groupe_6883" data-name="Groupe 6883" transform="translate(7.297 7.864)">
              <g id="Groupe_6882" data-name="Groupe 6882">
                <path id="Tracé_3077" data-name="Tracé 3077" d="M155.828,144.028a.807.807,0,0,0-1.142,0l-10.658,10.658a.807.807,0,1,0,1.142,1.142l10.658-10.658A.807.807,0,0,0,155.828,144.028Z" transform="translate(-143.792 -143.792)" fill="#767676"/>
              </g>
            </g>
            <g id="Groupe_6885" data-name="Groupe 6885" transform="translate(7.243 6.733)">
              <g id="Groupe_6884" data-name="Groupe 6884">
                <path id="Tracé_3078" data-name="Tracé 3078" d="M145.763,123.116a2.961,2.961,0,1,0,2.961,2.961A2.964,2.964,0,0,0,145.763,123.116Zm0,4.306a1.346,1.346,0,1,1,1.346-1.346A1.347,1.347,0,0,1,145.763,127.422Z" transform="translate(-142.802 -123.116)" fill="#767676"/>
              </g>
            </g>
            <g id="Groupe_6887" data-name="Groupe 6887" transform="translate(13.703 15.346)">
              <g id="Groupe_6886" data-name="Groupe 6886">
                <path id="Tracé_3079" data-name="Tracé 3079" d="M263.883,280.61a2.961,2.961,0,1,0,2.961,2.961A2.964,2.964,0,0,0,263.883,280.61Zm0,4.306a1.346,1.346,0,1,1,1.346-1.346A1.347,1.347,0,0,1,263.883,284.916Z" transform="translate(-260.922 -280.61)" fill="#767676"/>
              </g>
            </g>
          </g>
        </g>
        <g id="logout_4_" data-name="logout (4)" transform="translate(40 887.916)">
          <g id="Groupe_6889" data-name="Groupe 6889" transform="translate(8.362 32.484)">
            <g id="Groupe_6888" data-name="Groupe 6888">
              <path id="Tracé_3080" data-name="Tracé 3080" d="M169.175,204.678l-3.07-2.165a.841.841,0,0,0-1.325.687v1.324H150.036a.841.841,0,1,0,0,1.682h14.743v1.324a.842.842,0,0,0,1.325.687l3.071-2.165A.842.842,0,0,0,169.175,204.678Z" transform="translate(-149.195 -202.358)" fill="#767676"/>
            </g>
          </g>
          <g id="Groupe_6891" data-name="Groupe 6891" transform="translate(0 22.397)">
            <g id="Groupe_6890" data-name="Groupe 6890" transform="translate(0 0)">
              <path id="Tracé_3081" data-name="Tracé 3081" d="M24.127,40.889a.841.841,0,0,0-1.149.307,11.412,11.412,0,1,1,0-11.411.841.841,0,0,0,1.456-.842,13.093,13.093,0,1,0,0,13.094A.841.841,0,0,0,24.127,40.889Z" transform="translate(0 -22.397)" fill="#767676"/>
            </g>
          </g>
        </g>
      </g>
    </g>
  </g>
</svg>
