<svg xmlns="http://www.w3.org/2000/svg" width="26.75" height="24.864" viewBox="0 0 26.75 24.864">
  <g id="telechargement1" transform="translate(0.5 -16.75)">
    <g id="Groupe_6860" data-name="Groupe 6860" transform="translate(0 17.25)">
      <path id="Tracé_3073" data-name="Tracé 3073" d="M25.012,228.259a.735.735,0,0,0-.738.738v6.711a3.311,3.311,0,0,1-3.306,3.306H4.782a3.311,3.311,0,0,1-3.306-3.306v-6.82a.738.738,0,1,0-1.475,0v6.82a4.787,4.787,0,0,0,4.782,4.782H20.968a4.787,4.787,0,0,0,4.782-4.782V229A.738.738,0,0,0,25.012,228.259Z" transform="translate(0 -216.625)" fill="#eec400" stroke="#eec400" stroke-width="1"/>
      <path id="Tracé_3074" data-name="Tracé 3074" d="M141.136,35.256a.743.743,0,0,0,.519.219.72.72,0,0,0,.519-.219l4.689-4.689a.738.738,0,0,0-1.044-1.044l-3.426,3.432V17.988a.738.738,0,0,0-1.475,0V32.955l-3.432-3.432a.738.738,0,1,0-1.044,1.044Z" transform="translate(-128.781 -17.25)" fill="#eec400" stroke="#eec400" stroke-width="1"/>
    </g>
  </g>
</svg>
