<svg xmlns="http://www.w3.org/2000/svg" width="182.856" height="30.32" viewBox="0 0 182.856 30.32">
  <g id="telechargement-logo" transform="translate(0 0)">
    <g id="Groupe_6502" data-name="Groupe 6502" transform="translate(0 0.803)">
      <g id="Groupe_6500" data-name="Groupe 6500">
        <path id="Tracé_2813" data-name="Tracé 2813" d="M207.873,642.371a4.617,4.617,0,0,1,1.858,1.63,4.185,4.185,0,0,1,.687,2.343,4.025,4.025,0,0,1-3.1,4.309v.107q3.528.809,3.528,4.632a4.677,4.677,0,0,1-.714,2.572,4.824,4.824,0,0,1-1.953,1.737,5.994,5.994,0,0,1-2.72.62h-12.5V641.792H205.3A5.727,5.727,0,0,1,207.873,642.371Zm-8.955,6.638h4.093a1.287,1.287,0,0,0,.983-.417,1.463,1.463,0,0,0,.391-1.037v-.269a1.4,1.4,0,0,0-.4-1.01,1.3,1.3,0,0,0-.969-.418h-4.093Zm0,7h4.524a1.287,1.287,0,0,0,.983-.418,1.46,1.46,0,0,0,.391-1.037v-.269a1.462,1.462,0,0,0-.391-1.037,1.29,1.29,0,0,0-.983-.417h-4.524Z" transform="translate(-192.966 -641.792)" fill="#eec400"/>
        <path id="Tracé_2814" data-name="Tracé 2814" d="M239.026,646.532v13.789h-5.952V646.532h-6.087v-4.74h18.1v4.74Z" transform="translate(-208.27 -641.792)" fill="#eec400"/>
        <path id="Tracé_2815" data-name="Tracé 2815" d="M276.726,642.587a5.577,5.577,0,0,1,2.1,2.181,6.411,6.411,0,0,1,.754,3.111v.35a6.486,6.486,0,0,1-.754,3.124,5.548,5.548,0,0,1-2.1,2.2,5.931,5.931,0,0,1-3.07.794h-4.443v5.979H263.26V641.792h10.4A5.932,5.932,0,0,1,276.726,642.587Zm-7.514,7.419h2.45a1.887,1.887,0,0,0,1.414-.485,1.811,1.811,0,0,0,.471-1.319v-.216a1.8,1.8,0,0,0-.471-1.333,1.923,1.923,0,0,0-1.414-.471h-2.45Z" transform="translate(-224.586 -641.792)" fill="#eec400"/>
        <path id="Tracé_2816" data-name="Tracé 2816" d="M312.644,660.321v-6.679q0-1.239.095-2.545t.2-2.195q.107-.889.135-1.131h-.108l-3.42,12.55h-4.659L301.441,647.8h-.108q.026.243.148,1.119t.229,2.181q.107,1.306.108,2.545v6.679h-5.467V641.792h8.4l2.8,10.692h.108l2.774-10.692h8.106v18.529Z" transform="translate(-239.472 -641.792)" fill="#eec400"/>
        <path id="Tracé_2817" data-name="Tracé 2817" d="M352.685,660.321l-.781-2.612h-6.49l-.781,2.612h-6.087l6.76-18.529h6.922l6.76,18.529Zm-6.033-6.76h4.012l-1.939-6.6h-.108Z" transform="translate(-258.452 -641.792)" fill="#eec400"/>
        <path id="Tracé_2818" data-name="Tracé 2818" d="M384.362,646.532v13.789h-5.952V646.532h-6.087v-4.74h18.1v4.74Z" transform="translate(-273.647 -641.792)" fill="#eec400"/>
      </g>
      <g id="Groupe_6501" data-name="Groupe 6501" transform="translate(0 24.639)">
        <path id="Tracé_2819" data-name="Tracé 2819" d="M192.966,690.624V686.66h1.622a1.443,1.443,0,0,1,.581.111,1.06,1.06,0,0,1,.41.3,1.329,1.329,0,0,1,.233.414,1.453,1.453,0,0,1,.078.478,1.488,1.488,0,0,1-.078.481,1.31,1.31,0,0,1-.233.413,1.085,1.085,0,0,1-.411.294,1.47,1.47,0,0,1-.582.109h-.78v1.366Zm.84-2.107h.743a.442.442,0,0,0,.366-.172.606.606,0,0,0,.135-.385.633.633,0,0,0-.128-.383.41.41,0,0,0-.35-.176h-.766Z" transform="translate(-192.966 -686.614)" fill="#eec400"/>
        <path id="Tracé_2820" data-name="Tracé 2820" d="M199.6,690.624l1.472-3.964h.915l1.467,3.964h-.888l-.348-.938h-1.371l-.351.938Zm1.523-1.669h.823l-.419-1.379Z" transform="translate(-195.949 -686.614)" fill="#eec400"/>
        <path id="Tracé_2821" data-name="Tracé 2821" d="M208.839,690.624V686.66h1.607a1.43,1.43,0,0,1,.577.111,1.074,1.074,0,0,1,.412.3,1.342,1.342,0,0,1,.237.414,1.427,1.427,0,0,1,.08.478,1.369,1.369,0,0,1-.247.8,1.128,1.128,0,0,1-.72.454l.961,1.4h-.989l-.887-1.368h-.191v1.368Zm.84-2.107h.715a.441.441,0,0,0,.366-.172.6.6,0,0,0,.135-.385.637.637,0,0,0-.128-.383.412.412,0,0,0-.35-.176h-.738Z" transform="translate(-200.106 -686.614)" fill="#eec400"/>
        <path id="Tracé_2822" data-name="Tracé 2822" d="M216.4,687.418v-.758h2.986v.758h-1.065v3.206h-.857v-3.206Z" transform="translate(-203.505 -686.614)" fill="#eec400"/>
        <path id="Tracé_2823" data-name="Tracé 2823" d="M224.4,690.624V686.66h2.509v.741h-1.669v.905h1.461v.731h-1.461v.846h1.719v.742Z" transform="translate(-207.108 -686.614)" fill="#eec400"/>
        <path id="Tracé_2824" data-name="Tracé 2824" d="M231.869,690.624V686.66h.77L234,689.031V686.66h.84v3.964h-.75l-1.379-2.4v2.4Z" transform="translate(-210.466 -686.614)" fill="#eec400"/>
        <path id="Tracé_2825" data-name="Tracé 2825" d="M239.5,690.624l1.472-3.964h.915l1.467,3.964h-.888l-.348-.938h-1.371l-.351.938Zm1.523-1.669h.823l-.419-1.379Z" transform="translate(-213.899 -686.614)" fill="#eec400"/>
        <path id="Tracé_2826" data-name="Tracé 2826" d="M248.742,690.624V686.66h.84v3.964Z" transform="translate(-218.056 -686.614)" fill="#eec400"/>
        <path id="Tracé_2827" data-name="Tracé 2827" d="M253.4,690.624V686.66h1.607a1.43,1.43,0,0,1,.577.111,1.073,1.073,0,0,1,.412.3,1.341,1.341,0,0,1,.237.414,1.426,1.426,0,0,1,.08.478,1.369,1.369,0,0,1-.247.8,1.128,1.128,0,0,1-.72.454l.961,1.4h-.989l-.887-1.368h-.191v1.368Zm.84-2.107h.715a.441.441,0,0,0,.366-.172.6.6,0,0,0,.135-.385.637.637,0,0,0-.128-.383.412.412,0,0,0-.35-.176h-.738Z" transform="translate(-220.152 -686.614)" fill="#eec400"/>
        <path id="Tracé_2828" data-name="Tracé 2828" d="M261.5,690.624V686.66h2.509v.741h-1.669v.905h1.461v.731h-1.461v.846h1.719v.742Z" transform="translate(-223.797 -686.614)" fill="#eec400"/>
        <path id="Tracé_2829" data-name="Tracé 2829" d="M272.959,690.624V686.66h1.554a1.745,1.745,0,0,1,.967.264,1.647,1.647,0,0,1,.617.712,2.4,2.4,0,0,1,.206,1.016,2.357,2.357,0,0,1-.206,1.007,1.638,1.638,0,0,1-.617.7,1.763,1.763,0,0,1-.967.261Zm.84-.759h.714a.837.837,0,0,0,.524-.169.979.979,0,0,0,.323-.439,1.691,1.691,0,0,0,.1-.6,1.737,1.737,0,0,0-.1-.613,1,1,0,0,0-.323-.447.824.824,0,0,0-.524-.174H273.8Z" transform="translate(-228.949 -686.614)" fill="#eec400"/>
        <path id="Tracé_2830" data-name="Tracé 2830" d="M281.792,690.624V686.66H284.3v.741h-1.669v.905h1.461v.731h-1.461v.846h1.719v.742Z" transform="translate(-232.923 -686.614)" fill="#eec400"/>
        <path id="Tracé_2831" data-name="Tracé 2831" d="M288.786,689.423h.846a.452.452,0,0,0,.165.334.631.631,0,0,0,.428.135.715.715,0,0,0,.419-.113.362.362,0,0,0,.163-.3.347.347,0,0,0-.1-.256.857.857,0,0,0-.382-.19l-.474-.14q-1.03-.316-1.03-1.136a1.055,1.055,0,0,1,.393-.848,1.467,1.467,0,0,1,.972-.329,1.4,1.4,0,0,1,.96.329,1.118,1.118,0,0,1,.375.885h-.835a.43.43,0,0,0-.134-.33.532.532,0,0,0-.378-.125.6.6,0,0,0-.368.111.339.339,0,0,0-.146.282q0,.282.431.4l.473.141q1.111.329,1.077,1.211a1.084,1.084,0,0,1-.127.517,1.039,1.039,0,0,1-.327.367,1.615,1.615,0,0,1-.451.212,1.805,1.805,0,0,1-.517.074,1.535,1.535,0,0,1-1.041-.344A1.115,1.115,0,0,1,288.786,689.423Z" transform="translate(-236.069 -686.577)" fill="#eec400"/>
        <path id="Tracé_2832" data-name="Tracé 2832" d="M300.69,690.624V686.66h1.622a1.443,1.443,0,0,1,.581.111,1.06,1.06,0,0,1,.41.3,1.318,1.318,0,0,1,.233.414,1.453,1.453,0,0,1,.078.478,1.488,1.488,0,0,1-.078.481,1.3,1.3,0,0,1-.233.413,1.085,1.085,0,0,1-.411.294,1.47,1.47,0,0,1-.582.109h-.78v1.366Zm.84-2.107h.743a.442.442,0,0,0,.366-.172.606.606,0,0,0,.135-.385.636.636,0,0,0-.128-.383.412.412,0,0,0-.351-.176h-.766Z" transform="translate(-241.424 -686.614)" fill="#eec400"/>
        <path id="Tracé_2833" data-name="Tracé 2833" d="M308.552,690.624V686.66h1.607a1.43,1.43,0,0,1,.577.111,1.076,1.076,0,0,1,.413.3,1.35,1.35,0,0,1,.237.414,1.412,1.412,0,0,1,.081.478,1.366,1.366,0,0,1-.248.8,1.128,1.128,0,0,1-.719.454l.961,1.4h-.989l-.887-1.368h-.191v1.368Zm.84-2.107h.715a.44.44,0,0,0,.366-.172.6.6,0,0,0,.135-.385.637.637,0,0,0-.128-.383.411.411,0,0,0-.35-.176h-.738Z" transform="translate(-244.96 -686.614)" fill="#eec400"/>
        <path id="Tracé_2834" data-name="Tracé 2834" d="M316.236,688.613a2.033,2.033,0,0,1,.267-1.024,1.987,1.987,0,0,1,.729-.739,2.024,2.024,0,0,1,2.03,0,1.986,1.986,0,0,1,.73.739,2.081,2.081,0,0,1,0,2.041,2,2,0,0,1-1.747,1.012,1.959,1.959,0,0,1-.785-.162,2.015,2.015,0,0,1-.64-.434,2.043,2.043,0,0,1-.426-.649A2.015,2.015,0,0,1,316.236,688.613Zm.84,0a1.231,1.231,0,0,0,.34.875,1.134,1.134,0,0,0,1.661,0,1.3,1.3,0,0,0,0-1.755,1.129,1.129,0,0,0-1.66,0A1.241,1.241,0,0,0,317.076,688.613Z" transform="translate(-248.417 -686.577)" fill="#eec400"/>
        <path id="Tracé_2835" data-name="Tracé 2835" d="M326.263,690.624V686.66h2.481v.741H327.1v.905h1.3v.731h-1.3v1.587Z" transform="translate(-252.927 -686.614)" fill="#eec400"/>
        <path id="Tracé_2836" data-name="Tracé 2836" d="M333.329,690.624V686.66h2.509v.741h-1.669v.905h1.461v.731h-1.461v.846h1.719v.742Z" transform="translate(-256.106 -686.614)" fill="#eec400"/>
        <path id="Tracé_2837" data-name="Tracé 2837" d="M340.323,689.423h.846a.452.452,0,0,0,.165.334.631.631,0,0,0,.428.135.715.715,0,0,0,.419-.113.361.361,0,0,0,.163-.3.347.347,0,0,0-.1-.256.857.857,0,0,0-.382-.19l-.473-.14q-1.03-.316-1.03-1.136a1.054,1.054,0,0,1,.393-.848,1.467,1.467,0,0,1,.972-.329,1.406,1.406,0,0,1,.961.329,1.119,1.119,0,0,1,.375.885h-.835a.43.43,0,0,0-.134-.33.532.532,0,0,0-.378-.125.592.592,0,0,0-.368.111.338.338,0,0,0-.146.282q0,.282.431.4l.473.141q1.111.329,1.077,1.211a1.083,1.083,0,0,1-.127.517,1.039,1.039,0,0,1-.327.367,1.615,1.615,0,0,1-.451.212,1.805,1.805,0,0,1-.517.074,1.535,1.535,0,0,1-1.041-.344A1.115,1.115,0,0,1,340.323,689.423Z" transform="translate(-259.252 -686.577)" fill="#eec400"/>
        <path id="Tracé_2838" data-name="Tracé 2838" d="M347.848,689.423h.846a.452.452,0,0,0,.164.334.631.631,0,0,0,.428.135.715.715,0,0,0,.419-.113.362.362,0,0,0,.163-.3.347.347,0,0,0-.1-.256.857.857,0,0,0-.382-.19l-.473-.14q-1.031-.316-1.03-1.136a1.055,1.055,0,0,1,.393-.848,1.467,1.467,0,0,1,.972-.329,1.4,1.4,0,0,1,.96.329,1.118,1.118,0,0,1,.375.885h-.835a.43.43,0,0,0-.134-.33.532.532,0,0,0-.378-.125.6.6,0,0,0-.368.111.339.339,0,0,0-.146.282q0,.282.431.4l.473.141q1.111.329,1.077,1.211a1.083,1.083,0,0,1-.127.517,1.039,1.039,0,0,1-.327.367,1.615,1.615,0,0,1-.451.212,1.805,1.805,0,0,1-.517.074,1.535,1.535,0,0,1-1.041-.344A1.115,1.115,0,0,1,347.848,689.423Z" transform="translate(-262.637 -686.577)" fill="#eec400"/>
        <path id="Tracé_2839" data-name="Tracé 2839" d="M355.761,690.624V686.66h.84v3.964Z" transform="translate(-266.196 -686.614)" fill="#eec400"/>
        <path id="Tracé_2840" data-name="Tracé 2840" d="M360,688.613a2.033,2.033,0,0,1,.267-1.024,1.987,1.987,0,0,1,.729-.739,2.023,2.023,0,0,1,2.03,0,1.983,1.983,0,0,1,.731.739,2.085,2.085,0,0,1,0,2.041,1.984,1.984,0,0,1-.731.739,2.011,2.011,0,0,1-1.8.111,2.011,2.011,0,0,1-.641-.434,2.033,2.033,0,0,1-.425-.649A2.005,2.005,0,0,1,360,688.613Zm.84,0a1.231,1.231,0,0,0,.34.875,1.135,1.135,0,0,0,1.662,0,1.3,1.3,0,0,0,0-1.755,1.13,1.13,0,0,0-1.661,0A1.241,1.241,0,0,0,360.842,688.613Z" transform="translate(-268.104 -686.577)" fill="#eec400"/>
        <path id="Tracé_2841" data-name="Tracé 2841" d="M370.03,690.624V686.66h.77l1.359,2.371V686.66H373v3.964h-.75l-1.379-2.4v2.4Z" transform="translate(-272.615 -686.614)" fill="#eec400"/>
        <path id="Tracé_2842" data-name="Tracé 2842" d="M378.571,690.624V686.66h.77l1.359,2.371V686.66h.84v3.964h-.751l-1.379-2.4v2.4Z" transform="translate(-276.457 -686.614)" fill="#eec400"/>
        <path id="Tracé_2843" data-name="Tracé 2843" d="M387.112,690.624V686.66h2.509v.741h-1.669v.905h1.461v.731h-1.461v.846h1.719v.742Z" transform="translate(-280.299 -686.614)" fill="#eec400"/>
        <path id="Tracé_2844" data-name="Tracé 2844" d="M394.576,690.624V686.66h.84v3.222h1.489v.742Z" transform="translate(-283.656 -686.614)" fill="#eec400"/>
        <path id="Tracé_2845" data-name="Tracé 2845" d="M400.973,689.423h.846a.452.452,0,0,0,.164.334.631.631,0,0,0,.428.135.715.715,0,0,0,.419-.113.362.362,0,0,0,.163-.3.347.347,0,0,0-.1-.256.857.857,0,0,0-.382-.19l-.473-.14q-1.031-.316-1.03-1.136a1.055,1.055,0,0,1,.393-.848,1.467,1.467,0,0,1,.972-.329,1.4,1.4,0,0,1,.96.329,1.118,1.118,0,0,1,.375.885h-.835a.43.43,0,0,0-.134-.33.532.532,0,0,0-.378-.125.6.6,0,0,0-.368.111.339.339,0,0,0-.146.282q0,.282.431.4l.473.141q1.111.329,1.077,1.211a1.083,1.083,0,0,1-.127.517,1.039,1.039,0,0,1-.327.367,1.615,1.615,0,0,1-.451.212,1.805,1.805,0,0,1-.517.074,1.535,1.535,0,0,1-1.041-.344A1.115,1.115,0,0,1,400.973,689.423Z" transform="translate(-286.534 -686.577)" fill="#eec400"/>
      </g>
    </g>
    <g id="Groupe_6508" data-name="Groupe 6508" transform="translate(129.466)">
      <g id="Groupe_6505" data-name="Groupe 6505" transform="translate(0 0.292)">
        <g id="Groupe_6504" data-name="Groupe 6504" transform="translate(9.734 1.18)">
          <path id="Tracé_2846" data-name="Tracé 2846" d="M452.906,686.349a3.957,3.957,0,0,0-3.835-3.451A3.029,3.029,0,0,0,446,686.349a3.957,3.957,0,0,0,3.835,3.451A3.028,3.028,0,0,0,452.906,686.349Zm-3.309,1.285a1.473,1.473,0,0,1-1.428-1.285,1.128,1.128,0,0,1,1.142-1.285,1.474,1.474,0,0,1,1.429,1.285A1.128,1.128,0,0,1,449.6,687.634Z" transform="translate(-445.981 -660.952)" fill="#b2b2b2"/>
          <g id="Groupe_6503" data-name="Groupe 6503" transform="translate(24.033)">
            <path id="Tracé_2847" data-name="Tracé 2847" d="M495.72,654.888a5.475,5.475,0,0,0,1.141,3.352A5.066,5.066,0,0,1,501,650.254a5.424,5.424,0,0,1,3.38,1.255c-1.187.776-3.385,2.221-3.6,2.424a.723.723,0,1,0,.982,1.062c.3-.278,3.373-3.974,3.373-3.974l-.2.128a1.308,1.308,0,0,1,.2-.128,5.5,5.5,0,0,0-9.413,3.868Z" transform="translate(-492.388 -645.877)" fill="#eec400"/>
            <path id="Tracé_2848" data-name="Tracé 2848" d="M506.456,645.892a.63.63,0,1,0,.9-.882l-1.56-1.594a.63.63,0,0,0-.9.881l.091.092-.753.737a8.823,8.823,0,1,0,1.29,1.363l.775-.759ZM498.5,658.8a6.954,6.954,0,1,1,6.954-6.954A6.954,6.954,0,0,1,498.5,658.8Z" transform="translate(-489.663 -643.008)" fill="#eec400"/>
          </g>
          <path id="Tracé_2849" data-name="Tracé 2849" d="M498.28,686.349a3.957,3.957,0,0,0-3.835-3.451,3.029,3.029,0,0,0-3.068,3.451,3.957,3.957,0,0,0,3.836,3.451A3.028,3.028,0,0,0,498.28,686.349Zm-3.309,1.285a1.474,1.474,0,0,1-1.428-1.285,1.128,1.128,0,0,1,1.143-1.285,1.474,1.474,0,0,1,1.428,1.285A1.128,1.128,0,0,1,494.971,687.634Z" transform="translate(-466.391 -660.952)" fill="#b2b2b2"/>
        </g>
        <path id="Tracé_2850" data-name="Tracé 2850" d="M472.707,661.177H454.449c-.933,0-1.763-.5-1.842-1.118h0c-.08-.615.618-1.118,1.551-1.118h10.678a10.076,10.076,0,0,1-2.523-2.746h-8.606a1.621,1.621,0,0,1-1.7-1.118c-.074-.615.571-1.119,1.432-1.119h7.832a10.011,10.011,0,0,1-.461-2.746h-7.7a1.62,1.62,0,0,1-1.7-1.118c-.074-.615.57-1.118,1.432-1.118h8.14a9.971,9.971,0,0,1,.973-2.746h-9.444a1.621,1.621,0,0,1-1.7-1.119c-.074-.616.57-1.119,1.432-1.119h11.321A10.009,10.009,0,0,1,470,640.9l.031-.014c.213-.083-1.174.087-.99.032l-.005-.032H447.657a1.246,1.246,0,0,0-1.262,1.42l2.239,20.151h-.986l-2.082-18.738h-2.022l-.727.883-4.065-.048a8.035,8.035,0,0,0-7.233,4.023l-2.044,3.631a9.818,9.818,0,0,0-.938,5.612l.6,5.038a1.546,1.546,0,0,0-.745,1.981l.436,1.208a1.364,1.364,0,0,0,1.253.9h5.629a1.039,1.039,0,0,0,1-.671l.5-1.317a3.864,3.864,0,0,1,3.693-2.465,5.079,5.079,0,0,1,4.479,2.9l.368.771a1.362,1.362,0,0,0,1.2.78h15.214a4.248,4.248,0,0,1-.024-.438,3.446,3.446,0,0,1,3.53-3.5h.657a4.521,4.521,0,0,1,4.382,3.942h1.21a1.246,1.246,0,0,0,1.262-1.42Zm-29.345-8.591-9.992,2.207a1,1,0,0,1-1.115-1.341l1.92-3.973a3.423,3.423,0,0,1,2.965-1.913l5.32-.27a1.377,1.377,0,0,1,1.4,1.2l.322,2.912A1.051,1.051,0,0,1,443.362,652.586Z" transform="translate(-428.287 -640.863)" fill="#b2b2b2"/>
      </g>
      <g id="Groupe_6507" data-name="Groupe 6507" transform="translate(48.13)">
        <g id="Groupe_6506" data-name="Groupe 6506">
          <path id="Tracé_2851" data-name="Tracé 2851" d="M522.443,642.374a.178.178,0,0,0,0-.251l-.268-.265a.178.178,0,0,0-.226-.02l-.559.385.376-.567a.178.178,0,0,0-.024-.225l-.582-.575a.178.178,0,0,0-.2-.034l-.1.049.047-.107a.178.178,0,0,0-.038-.2l-.183-.181a.178.178,0,0,0-.251,0l-1.4,1.419,2.012,1.99Z" transform="translate(-517.235 -640.332)" fill="#eec400"/>
          <path id="Tracé_2852" data-name="Tracé 2852" d="M517.3,643.488l-.406.411a.177.177,0,0,0,0,.251l.39.386a.347.347,0,0,1-.056.538,10.185,10.185,0,0,0-1.275.874.642.642,0,1,0,.913.9,10.185,10.185,0,0,0,.86-1.285.347.347,0,0,1,.537-.062l.39.386a.178.178,0,0,0,.251,0l.407-.411Zm-.7,3.078a.251.251,0,1,1,0-.355A.251.251,0,0,1,516.6,646.566Z" transform="translate(-515.769 -641.752)" fill="#eec400"/>
        </g>
      </g>
    </g>
  </g>
</svg>
