<svg xmlns="http://www.w3.org/2000/svg" width="23.793" height="32.19" viewBox="0 0 23.793 32.19">
  <g id="text-document" transform="translate(-61.381)">
    <path id="Tracé_3082" data-name="Tracé 3082" d="M79.556,0h-16.2a1.977,1.977,0,0,0-1.974,1.974V30.216a1.976,1.976,0,0,0,1.974,1.974H83.2a1.976,1.976,0,0,0,1.974-1.974V6.1Zm.466,2.954L82.484,5.63H80.022Zm3.494,27.262a.318.318,0,0,1-.317.317H63.355a.317.317,0,0,1-.316-.317V1.974a.316.316,0,0,1,.316-.316H78.363v4.8a.829.829,0,0,0,.83.828h4.323ZM65.963,8.817H80.04a.621.621,0,1,1,0,1.242H65.963a.621.621,0,0,1,0-1.242Zm14.7,4.794a.621.621,0,0,1-.621.621H65.963a.621.621,0,0,1,0-1.242H80.04A.621.621,0,0,1,80.661,13.611Zm0,4.037a.621.621,0,0,1-.621.621H65.963a.621.621,0,0,1,0-1.242H80.04A.621.621,0,0,1,80.661,17.648Zm0,4.106a.621.621,0,0,1-.621.621H65.963a.621.621,0,0,1,0-1.242H80.04A.621.621,0,0,1,80.661,21.753Z" transform="translate(0)" fill="#eec400"/>
  </g>
</svg>
