<svg xmlns="http://www.w3.org/2000/svg" width="39.467" height="39.467" viewBox="0 0 39.467 39.467">
  <g id="twitter" transform="translate(0 -0.001)">
    <g id="Groupe_3" data-name="Groupe 3">
      <path id="Tracé_215" data-name="Tracé 215" d="M19.733,0A19.733,19.733,0,1,0,39.467,19.733,19.734,19.734,0,0,0,19.733,0Zm9.817,15.3.015.629A13.816,13.816,0,0,1,8.3,27.572a9.991,9.991,0,0,0,1.159.069,9.749,9.749,0,0,0,6.033-2.079,4.866,4.866,0,0,1-4.539-3.374,5,5,0,0,0,2.2-.084,4.863,4.863,0,0,1-3.9-4.763v-.062a4.851,4.851,0,0,0,2.2.609,4.866,4.866,0,0,1-1.5-6.485A13.788,13.788,0,0,0,19.958,16.48a4.862,4.862,0,0,1,8.281-4.43,9.838,9.838,0,0,0,3.086-1.179,4.871,4.871,0,0,1-2.136,2.689,9.739,9.739,0,0,0,2.79-.765A9.821,9.821,0,0,1,29.551,15.3Z" fill="#d3d5d8"/>
    </g>
  </g>
</svg>
