<svg xmlns="http://www.w3.org/2000/svg" width="27.735" height="16.533" viewBox="0 0 27.735 16.533">
  <path id="yeux" d="M13.868,98.725c-5.3,0-10.1,2.9-13.651,7.608a1.1,1.1,0,0,0,0,1.311c3.546,4.715,8.352,7.614,13.651,7.614s10.1-2.9,13.651-7.608a1.1,1.1,0,0,0,0-1.311C23.972,101.624,19.167,98.725,13.868,98.725Zm.38,14.088a5.834,5.834,0,1,1,5.441-5.441A5.837,5.837,0,0,1,14.248,112.813Zm-.176-2.689a3.141,3.141,0,1,1,2.933-2.933A3.136,3.136,0,0,1,14.072,110.123Z" transform="translate(0 -98.725)" fill="#979797"/>
</svg>
